M48
; DRILL file {KiCad 7.0.7} date Wed Sep 20 14:32:49 2023
; FORMAT={-:-/ absolute / inch / decimal}
; #@! TF.CreationDate,2023-09-20T14:32:49+02:00
; #@! TF.GenerationSoftware,Kicad,Pcbnew,7.0.7
; #@! TF.FileFunction,Plated,1,2,PTH
FMAT,2
INCH
; #@! TA.AperFunction,Plated,PTH,ViaDrill
T1C0.0157
; #@! TA.AperFunction,Plated,PTH,ComponentDrill
T2C0.0236
; #@! TA.AperFunction,Plated,PTH,ComponentDrill
T3C0.0315
; #@! TA.AperFunction,Plated,PTH,ComponentDrill
T4C0.0394
; #@! TA.AperFunction,Plated,PTH,ComponentDrill
T5C0.0472
; #@! TA.AperFunction,Plated,PTH,ComponentDrill
T6C0.1063
%
G90
G05
T1
X4.0759Y-3.5578
X4.0838Y-4.2429
X4.0917Y-4.9043
X4.0917Y-5.5736
X4.32Y-2.9437
X4.4854Y-2.9437
X4.5484Y-3.0854
X4.7846Y-5.235
X4.824Y-4.3846
X4.8319Y-3.7074
X5.257Y-2.7468
X5.3043Y-6.1956
X5.3122Y-4.3374
X5.4145Y-5.6838
X5.5248Y-5.0854
X5.5956Y-3.2744
X5.9893Y-6.2035
X6.0366Y-3.9673
X6.0681Y-5.6759
X6.2098Y-2.9122
X6.3515Y-5.0303
X6.4854Y-4.1563
X6.6043Y-4.013
X6.6665Y-6.2114
X6.7452Y-5.6917
X6.7689Y-3.1169
X6.9799Y-3.6342
X7.0051Y-3.4397
X7.0523Y-4.6444
X7.3507Y-3.0791
X7.383Y-4.235
T3
X6.4Y-3.2281
X6.4Y-3.5943
X6.4Y-3.7163
X6.4004Y-3.3502
X6.4004Y-3.4722
X6.7Y-3.2281
X6.7Y-3.5943
X6.7Y-3.7163
X6.7004Y-3.3502
X6.7004Y-3.4722
T4
X3.6832Y-2.7133
X3.6832Y-2.8133
X4.3515Y-6.1484
X4.4515Y-6.1484
X5.4405Y-3.6173
X5.4405Y-3.7173
X5.4405Y-3.8173
X5.4405Y-3.9173
X5.4405Y-4.0173
X5.4405Y-4.1173
X5.4405Y-4.2173
X5.4405Y-4.3173
X5.4405Y-4.5173
X5.4405Y-4.6173
X5.4405Y-4.7173
X5.4405Y-4.8173
X5.4405Y-4.9173
X5.4405Y-5.0173
X5.5862Y-3.5535
X5.5862Y-3.6535
X5.5862Y-3.7535
X5.5862Y-3.8535
X5.5862Y-3.9535
X5.5862Y-4.0535
X5.5862Y-4.1535
X5.5862Y-4.2535
X5.5862Y-4.4007
X5.5862Y-4.5007
X5.5862Y-4.6007
X5.5862Y-4.7007
X5.5862Y-4.8007
X5.5862Y-4.9007
X5.7295Y-4.5649
X5.7295Y-4.6649
X5.7295Y-4.7649
X5.7295Y-4.8649
X5.7358Y-4.1645
X5.7358Y-4.2645
X5.7358Y-4.3645
X5.8027Y-3.8256
X5.8319Y-3.2263
X5.8319Y-3.3263
X5.8319Y-3.4263
X5.8319Y-3.5263
X5.8854Y-4.1645
X5.8854Y-4.2645
X5.8854Y-4.3645
X5.9027Y-3.8256
X6.1826Y-3.1848
X6.1826Y-3.3275
X6.1826Y-3.4722
X6.1826Y-3.6179
X6.1826Y-3.7645
X6.2826Y-3.1848
X6.2826Y-3.3275
X6.2826Y-3.4722
X6.2826Y-3.6179
X6.2826Y-3.7645
X6.9724Y-3.8498
X6.9744Y-3.9905
X6.9744Y-4.1322
X7.0724Y-3.8498
X7.0744Y-3.9905
X7.0744Y-4.1322
X7.2177Y-3.1193
X7.2177Y-3.2193
X7.2177Y-3.3193
X7.2177Y-3.4193
X7.2177Y-3.5193
X7.2177Y-3.6193
X7.2177Y-3.7193
X7.2177Y-3.8193
X7.2177Y-3.9193
X7.2177Y-4.0193
X7.2177Y-4.1641
X7.2177Y-4.2641
X7.2177Y-4.3641
X7.2177Y-4.4641
X7.2177Y-4.5641
X7.2177Y-4.6641
X7.2177Y-4.7641
X7.2177Y-4.8641
X7.3405Y-3.2574
X7.3405Y-3.3574
X7.3405Y-3.4574
X7.3405Y-3.5574
X7.3405Y-3.6574
X7.3405Y-3.7574
X7.3405Y-3.8574
X7.3405Y-3.9574
X7.3405Y-4.0574
X7.3405Y-4.1574
X7.3405Y-4.3173
X7.3405Y-4.4173
X7.3405Y-4.5173
X7.3405Y-4.6173
X7.3405Y-4.7173
X7.3405Y-4.8173
X7.3405Y-4.9173
X7.3405Y-5.0173
T5
X3.7339Y-4.5736
X3.7413Y-5.2389
X3.7452Y-3.2271
X3.7452Y-3.9043
X3.7531Y-5.9082
X4.0292Y-4.5736
X4.0366Y-5.2389
X4.0405Y-3.2271
X4.0405Y-3.9043
X4.0484Y-5.9082
X4.3043Y-4.9043
X4.3082Y-4.2429
X4.3082Y-5.5696
X4.3087Y-3.5657
X4.5996Y-4.9043
X4.6035Y-4.2429
X4.6035Y-5.5696
X4.604Y-3.5657
X4.7019Y-2.7389
X4.9303Y-4.046
X4.9381Y-4.7153
X4.9598Y-5.8374
X4.9598Y-6.1326
X4.9618Y-3.3846
X4.9972Y-2.7389
X5.2098Y-5.2198
X5.2098Y-5.515
X5.2256Y-4.046
X5.2334Y-4.7153
X5.257Y-3.3846
X5.6507Y-5.8374
X5.6507Y-6.1326
X5.8712Y-5.1883
X5.8712Y-5.4835
X6.1389Y-4.5775
X6.1389Y-4.8728
X6.3275Y-5.8378
X6.3275Y-6.133
X6.4854Y-3.9948
X6.4854Y-4.2901
X6.5248Y-5.2153
X6.5248Y-5.5106
X6.8082Y-4.577
X6.8082Y-4.8723
X7.0031Y-5.8358
X7.0031Y-6.1311
X7.1783Y-5.1838
X7.1783Y-5.4791
T6
X4.0138Y-2.7695
X4.2972Y-2.7695
T2
G00X3.8898Y-2.5116
M15
G01X3.8898Y-2.5549
M16
G05
G00X4.4213Y-2.5116
M15
G01X4.4213Y-2.5549
M16
G05
T0
M30
