%TF.GenerationSoftware,KiCad,Pcbnew,7.0.7*%
%TF.CreationDate,2023-09-20T14:32:49+02:00*%
%TF.ProjectId,Actuator,41637475-6174-46f7-922e-6b696361645f,v0.0*%
%TF.SameCoordinates,Original*%
%TF.FileFunction,Profile,NP*%
%FSLAX46Y46*%
G04 Gerber Fmt 4.6, Leading zero omitted, Abs format (unit mm)*
G04 Created by KiCad (PCBNEW 7.0.7) date 2023-09-20 14:32:49*
%MOMM*%
%LPD*%
G01*
G04 APERTURE LIST*
%TA.AperFunction,Profile*%
%ADD10C,0.100000*%
%TD*%
G04 APERTURE END LIST*
D10*
X149529000Y-77319000D02*
X149529000Y-62319000D01*
X91869000Y-159700000D02*
X187600000Y-159700000D01*
X166329000Y-77369000D02*
X179529000Y-77369000D01*
X187600000Y-159700000D02*
G75*
G03*
X189600000Y-157700000I0J2000000D01*
G01*
X151529000Y-60319000D02*
G75*
G03*
X149529000Y-62319000I0J-2000000D01*
G01*
X164329000Y-60319000D02*
X151529000Y-60319000D01*
X181129000Y-62343200D02*
X181129000Y-77369000D01*
X141529000Y-77319000D02*
X149529000Y-77319000D01*
X89869000Y-157700000D02*
X89869000Y-62329000D01*
X166329000Y-77169000D02*
X166329000Y-77369000D01*
X137129040Y-62344003D02*
G75*
G03*
X135294827Y-60342239I-1848440J147503D01*
G01*
X145409000Y-128359000D02*
G75*
G03*
X145409000Y-128359000I-1600000J0D01*
G01*
X139529000Y-75569000D02*
X141529000Y-77319000D01*
X137129000Y-75569000D02*
X139529000Y-75569000D01*
X166329000Y-62319000D02*
G75*
G03*
X164329000Y-60319000I-2000000J0D01*
G01*
X91869000Y-60329000D02*
G75*
G03*
X89869000Y-62329000I0J-2000000D01*
G01*
X187600000Y-60329000D02*
X183143214Y-60329000D01*
X189600000Y-62329000D02*
X189600000Y-157700000D01*
X94119000Y-157329000D02*
G75*
G03*
X94119000Y-157329000I-1250000J0D01*
G01*
X166329000Y-76769000D02*
X166329000Y-77169000D01*
X91869000Y-60329000D02*
X135294827Y-60342238D01*
X137129000Y-62344000D02*
X137129000Y-75569000D01*
X179529000Y-77369000D02*
X181129000Y-77369000D01*
X188119000Y-63329000D02*
G75*
G03*
X188119000Y-63329000I-1250000J0D01*
G01*
X89869000Y-157700000D02*
G75*
G03*
X91869000Y-159700000I2000000J0D01*
G01*
X189600000Y-62329000D02*
G75*
G03*
X187600000Y-60329000I-2000000J0D01*
G01*
X173349000Y-128359000D02*
G75*
G03*
X173349000Y-128359000I-1600000J0D01*
G01*
X183143214Y-60329000D02*
G75*
G03*
X181129000Y-62343200I-14J-2014200D01*
G01*
X188119000Y-157329000D02*
G75*
G03*
X188119000Y-157329000I-1250000J0D01*
G01*
X140329000Y-77559000D02*
G75*
G03*
X140329000Y-77559000I-1600000J0D01*
G01*
X166329000Y-72319000D02*
X166329000Y-62319000D01*
X166329000Y-72319000D02*
X166329000Y-76769000D01*
X94146000Y-63329000D02*
G75*
G03*
X94146000Y-63329000I-1250000J0D01*
G01*
M02*
