%TF.GenerationSoftware,KiCad,Pcbnew,7.0.7*%
%TF.CreationDate,2023-09-19T14:40:45+02:00*%
%TF.ProjectId,Actuator,41637475-6174-46f7-922e-6b696361645f,v0.0*%
%TF.SameCoordinates,Original*%
%TF.FileFunction,Legend,Bot*%
%TF.FilePolarity,Positive*%
%FSLAX46Y46*%
G04 Gerber Fmt 4.6, Leading zero omitted, Abs format (unit mm)*
G04 Created by KiCad (PCBNEW 7.0.7) date 2023-09-19 14:40:45*
%MOMM*%
%LPD*%
G01*
G04 APERTURE LIST*
%ADD10C,0.150000*%
%ADD11C,0.120000*%
%ADD12R,1.700000X1.700000*%
%ADD13O,1.700000X1.700000*%
%ADD14C,1.600000*%
%ADD15O,1.600000X1.600000*%
%ADD16R,2.400000X2.400000*%
%ADD17C,2.400000*%
%ADD18C,4.050000*%
%ADD19C,2.700000*%
%ADD20R,1.600000X1.600000*%
G04 APERTURE END LIST*
D10*
X134548104Y-92434714D02*
X134548104Y-92910904D01*
X134833819Y-92339476D02*
X133833819Y-92672809D01*
X133833819Y-92672809D02*
X134833819Y-93006142D01*
X134833819Y-93863285D02*
X134833819Y-93291857D01*
X134833819Y-93577571D02*
X133833819Y-93577571D01*
X133833819Y-93577571D02*
X133976676Y-93482333D01*
X133976676Y-93482333D02*
X134071914Y-93387095D01*
X134071914Y-93387095D02*
X134119533Y-93291857D01*
%TO.C,G1*%
G36*
X111928732Y-120480000D02*
G01*
X111922823Y-120469423D01*
X111928903Y-120468396D01*
X111928732Y-120480000D01*
G37*
G36*
X113888598Y-120395334D02*
G01*
X113846123Y-120437667D01*
X113803649Y-120395334D01*
X113846123Y-120353000D01*
X113888598Y-120395334D01*
G37*
G36*
X112246235Y-117079222D02*
G01*
X112259525Y-117104689D01*
X112189602Y-117135667D01*
X112144630Y-117129557D01*
X112132969Y-117079222D01*
X112145419Y-117069089D01*
X112246235Y-117079222D01*
G37*
G36*
X112290480Y-117247163D02*
G01*
X112329800Y-117277639D01*
X112239156Y-117298316D01*
X112152994Y-117292329D01*
X112127659Y-117253847D01*
X112157713Y-117237070D01*
X112290480Y-117247163D01*
G37*
G36*
X120712610Y-114100393D02*
G01*
X120823081Y-114199656D01*
X120812010Y-114341667D01*
X120703892Y-114422958D01*
X120575138Y-114393208D01*
X120514685Y-114257000D01*
X120537857Y-114158161D01*
X120637097Y-114087667D01*
X120712610Y-114100393D01*
G37*
G36*
X119962073Y-125526408D02*
G01*
X120048174Y-125611983D01*
X120030993Y-125717524D01*
X120004544Y-125740511D01*
X119887257Y-125761434D01*
X119835087Y-125644667D01*
X119844080Y-125586318D01*
X119915023Y-125517667D01*
X119962073Y-125526408D01*
G37*
G36*
X119391305Y-111623176D02*
G01*
X119479005Y-111710650D01*
X119473589Y-111758707D01*
X119367863Y-111801667D01*
X119297727Y-111787853D01*
X119256720Y-111710650D01*
X119268256Y-111685548D01*
X119367863Y-111619634D01*
X119391305Y-111623176D01*
G37*
G36*
X118581144Y-126790127D02*
G01*
X118645789Y-126872334D01*
X118643320Y-126892571D01*
X118560839Y-126957000D01*
X118540534Y-126954540D01*
X118475889Y-126872334D01*
X118478358Y-126852096D01*
X118560839Y-126787667D01*
X118581144Y-126790127D01*
G37*
G36*
X116368288Y-109779219D02*
G01*
X116437093Y-109854334D01*
X116422717Y-109893283D01*
X116309669Y-109939000D01*
X116251050Y-109929448D01*
X116182244Y-109854334D01*
X116196620Y-109815384D01*
X116309669Y-109769667D01*
X116368288Y-109779219D01*
G37*
G36*
X115324124Y-128229458D02*
G01*
X115415049Y-128299350D01*
X115363372Y-128422254D01*
X115328005Y-128443706D01*
X115219054Y-128417229D01*
X115162846Y-128306670D01*
X115177183Y-128270067D01*
X115290271Y-128227000D01*
X115324124Y-128229458D01*
G37*
G36*
X112656306Y-127749373D02*
G01*
X112699301Y-127888334D01*
X112671051Y-128012097D01*
X112550639Y-128041549D01*
X112472596Y-128007882D01*
X112401976Y-127888334D01*
X112424258Y-127818604D01*
X112550639Y-127735118D01*
X112656306Y-127749373D01*
G37*
G36*
X105846389Y-114439060D02*
G01*
X105956860Y-114538323D01*
X105945789Y-114680334D01*
X105837671Y-114761625D01*
X105708918Y-114731875D01*
X105648465Y-114595667D01*
X105671637Y-114496828D01*
X105770876Y-114426334D01*
X105846389Y-114439060D01*
G37*
G36*
X105204683Y-123476509D02*
G01*
X105292383Y-123563984D01*
X105286967Y-123612040D01*
X105181241Y-123655000D01*
X105111105Y-123641186D01*
X105070098Y-123563984D01*
X105081634Y-123538882D01*
X105181241Y-123472967D01*
X105204683Y-123476509D01*
G37*
G36*
X104838046Y-115117995D02*
G01*
X104883916Y-115230667D01*
X104874332Y-115289090D01*
X104798966Y-115357667D01*
X104759887Y-115343339D01*
X104714016Y-115230667D01*
X104723601Y-115172243D01*
X104798966Y-115103667D01*
X104838046Y-115117995D01*
G37*
G36*
X104501013Y-121559960D02*
G01*
X104544117Y-121665334D01*
X104530256Y-121735235D01*
X104452796Y-121776106D01*
X104427610Y-121764608D01*
X104361475Y-121665334D01*
X104365029Y-121641970D01*
X104452796Y-121554561D01*
X104501013Y-121559960D01*
G37*
G36*
X104135512Y-118499886D02*
G01*
X104204317Y-118575000D01*
X104189941Y-118613949D01*
X104076893Y-118659667D01*
X104018274Y-118650115D01*
X103949468Y-118575000D01*
X103963844Y-118536051D01*
X104076893Y-118490334D01*
X104135512Y-118499886D01*
G37*
G36*
X119245113Y-111918768D02*
G01*
X119193187Y-112064024D01*
X119016199Y-112308279D01*
X118960194Y-112371839D01*
X118805363Y-112498991D01*
X118702445Y-112484667D01*
X118684649Y-112460437D01*
X118702527Y-112335554D01*
X118857627Y-112140892D01*
X119027618Y-111982085D01*
X119185437Y-111886719D01*
X119245113Y-111918768D01*
G37*
G36*
X115214825Y-127456548D02*
G01*
X115293114Y-127740167D01*
X115315277Y-127887369D01*
X115303778Y-128021578D01*
X115225890Y-128057667D01*
X115222660Y-128057602D01*
X115118834Y-127973551D01*
X115049724Y-127748108D01*
X115027783Y-127503684D01*
X115058027Y-127339094D01*
X115128418Y-127323119D01*
X115214825Y-127456548D01*
G37*
G36*
X106034090Y-123067738D02*
G01*
X106060921Y-123113975D01*
X106060977Y-123170481D01*
X105977273Y-123233889D01*
X105776219Y-123339613D01*
X105590583Y-123412535D01*
X105456716Y-123421336D01*
X105426206Y-123365307D01*
X105529408Y-123254872D01*
X105779904Y-123085851D01*
X105944634Y-123023399D01*
X106034090Y-123067738D01*
G37*
G36*
X105359369Y-121321581D02*
G01*
X105378444Y-121386690D01*
X105272258Y-121482636D01*
X105048687Y-121583752D01*
X105025800Y-121591331D01*
X104820995Y-121634275D01*
X104725697Y-121603343D01*
X104721486Y-121526364D01*
X104842170Y-121414948D01*
X105127594Y-121326656D01*
X105207153Y-121312979D01*
X105359369Y-121321581D01*
G37*
G36*
X104811706Y-118492638D02*
G01*
X104997706Y-118529027D01*
X105053816Y-118617334D01*
X105050509Y-118671054D01*
X105008964Y-118730131D01*
X104885971Y-118734424D01*
X104639685Y-118691417D01*
X104448544Y-118634711D01*
X104383286Y-118566664D01*
X104474025Y-118512457D01*
X104714016Y-118490334D01*
X104811706Y-118492638D01*
G37*
G36*
X119333090Y-124937551D02*
G01*
X119544033Y-125100391D01*
X119631123Y-125190311D01*
X119755197Y-125351081D01*
X119784293Y-125446416D01*
X119776900Y-125457740D01*
X119693477Y-125511498D01*
X119569121Y-125453299D01*
X119374476Y-125270547D01*
X119293086Y-125178632D01*
X119186401Y-124997962D01*
X119206807Y-124910505D01*
X119333090Y-124937551D01*
G37*
G36*
X118454679Y-125795102D02*
G01*
X118641295Y-125949547D01*
X118715580Y-126028084D01*
X118884950Y-126293426D01*
X118910421Y-126555551D01*
X118907506Y-126567511D01*
X118840694Y-126582386D01*
X118718983Y-126494158D01*
X118577996Y-126335335D01*
X118453354Y-126138427D01*
X118355189Y-125901722D01*
X118356722Y-125781760D01*
X118454679Y-125795102D01*
G37*
G36*
X118054255Y-126042997D02*
G01*
X118186873Y-126161612D01*
X118317782Y-126342122D01*
X118407030Y-126524462D01*
X118414664Y-126648571D01*
X118388874Y-126659274D01*
X118278216Y-126596494D01*
X118125427Y-126440629D01*
X118031216Y-126324201D01*
X117910130Y-126144385D01*
X117901937Y-126051855D01*
X118000323Y-126025667D01*
X118054255Y-126042997D01*
G37*
G36*
X116250244Y-110143165D02*
G01*
X116255090Y-110309550D01*
X116173934Y-110603699D01*
X116134882Y-110696407D01*
X116043112Y-110834396D01*
X115962199Y-110884629D01*
X115927394Y-110816656D01*
X115934113Y-110752709D01*
X115982553Y-110564251D01*
X116058029Y-110352500D01*
X116136942Y-110179759D01*
X116195690Y-110108334D01*
X116250244Y-110143165D01*
G37*
G36*
X115908661Y-109786740D02*
G01*
X115926033Y-109916008D01*
X115887458Y-110133869D01*
X115798830Y-110394327D01*
X115790970Y-110412846D01*
X115671419Y-110634136D01*
X115583002Y-110694019D01*
X115540376Y-110595668D01*
X115558195Y-110342254D01*
X115633758Y-110054900D01*
X115748578Y-109847620D01*
X115878852Y-109769667D01*
X115908661Y-109786740D01*
G37*
G36*
X105135094Y-115280717D02*
G01*
X105303367Y-115343041D01*
X105500730Y-115440970D01*
X105664855Y-115541794D01*
X105733414Y-115612803D01*
X105706823Y-115676888D01*
X105567108Y-115678362D01*
X105304447Y-115567159D01*
X105235385Y-115527071D01*
X105098165Y-115413520D01*
X105038090Y-115315030D01*
X105085916Y-115273000D01*
X105135094Y-115280717D01*
G37*
G36*
X114180095Y-120015985D02*
G01*
X114283175Y-120077910D01*
X114313348Y-120268334D01*
X114309507Y-120365830D01*
X114259481Y-120489699D01*
X114122210Y-120516383D01*
X114109238Y-120515925D01*
X114003252Y-120497599D01*
X114058498Y-120452883D01*
X114141041Y-120384433D01*
X114181853Y-120223669D01*
X114100973Y-120079130D01*
X114078232Y-120042607D01*
X114164685Y-120015630D01*
X114180095Y-120015985D01*
G37*
G36*
X112274552Y-120178297D02*
G01*
X112257383Y-120284282D01*
X112198503Y-120316150D01*
X112159683Y-120307164D01*
X112079178Y-120381709D01*
X111972749Y-120460989D01*
X111928903Y-120468396D01*
X111931742Y-120275389D01*
X111947956Y-120153594D01*
X111990648Y-120126488D01*
X112036677Y-120141608D01*
X112160548Y-120087899D01*
X112175996Y-120075567D01*
X112254098Y-120053788D01*
X112274552Y-120178297D01*
G37*
G36*
X122144391Y-116564707D02*
G01*
X122213682Y-116678262D01*
X122171823Y-116759097D01*
X122022545Y-116834424D01*
X121890031Y-116862553D01*
X121661508Y-116910882D01*
X121422610Y-116950810D01*
X121308417Y-116935988D01*
X121300432Y-116860500D01*
X121345863Y-116798505D01*
X121498648Y-116726358D01*
X121593876Y-116695927D01*
X121752847Y-116582247D01*
X121822278Y-116530486D01*
X121988120Y-116510073D01*
X122144391Y-116564707D01*
G37*
G36*
X119681306Y-124595695D02*
G01*
X119750137Y-124669387D01*
X119799195Y-124735495D01*
X119954485Y-124803558D01*
X119973436Y-124809040D01*
X120137448Y-124926939D01*
X120227474Y-125108779D01*
X120205700Y-125282471D01*
X120121561Y-125300148D01*
X119947828Y-125183026D01*
X119691858Y-124925000D01*
X119682381Y-124914466D01*
X119532543Y-124722080D01*
X119513683Y-124617748D01*
X119622712Y-124586334D01*
X119681306Y-124595695D01*
G37*
G36*
X117361489Y-110629726D02*
G01*
X117431174Y-110675437D01*
X117483884Y-110745832D01*
X117459656Y-110857870D01*
X117358062Y-111066001D01*
X117316752Y-111142875D01*
X117193214Y-111308756D01*
X117101939Y-111312830D01*
X117063007Y-111235169D01*
X117114717Y-111043344D01*
X117169426Y-110890378D01*
X117118462Y-110745459D01*
X117085726Y-110697238D01*
X117086458Y-110596617D01*
X117192846Y-110567223D01*
X117361489Y-110629726D01*
G37*
G36*
X113833140Y-119991837D02*
G01*
X113888598Y-120107570D01*
X113873622Y-120166292D01*
X113782411Y-120305899D01*
X113711321Y-120363907D01*
X113642244Y-120327725D01*
X113636588Y-120292162D01*
X113705956Y-120202011D01*
X113736978Y-120187410D01*
X113803649Y-120086948D01*
X113793133Y-120056322D01*
X113705573Y-120064752D01*
X113657528Y-120085415D01*
X113668968Y-120026034D01*
X113723160Y-119977527D01*
X113833140Y-119991837D01*
G37*
G36*
X116989075Y-126676860D02*
G01*
X117089439Y-126817913D01*
X117205184Y-126973572D01*
X117326766Y-127041667D01*
X117328344Y-127041670D01*
X117474002Y-127088725D01*
X117485327Y-127190635D01*
X117355762Y-127291016D01*
X117223413Y-127343278D01*
X117139070Y-127374967D01*
X117132162Y-127369491D01*
X117076571Y-127267071D01*
X116990971Y-127075006D01*
X116955914Y-126982312D01*
X116911806Y-126786494D01*
X116926362Y-126675532D01*
X116989075Y-126676860D01*
G37*
G36*
X115064009Y-120117339D02*
G01*
X115107837Y-120217894D01*
X115014369Y-120381653D01*
X114930640Y-120480097D01*
X114916661Y-120525482D01*
X115018596Y-120495326D01*
X115104219Y-120476430D01*
X115119770Y-120523303D01*
X115089675Y-120556029D01*
X114945458Y-120607000D01*
X114847392Y-120551647D01*
X114829345Y-120424929D01*
X114909382Y-120309813D01*
X114936190Y-120286556D01*
X114946844Y-120177817D01*
X114934735Y-120150909D01*
X114973774Y-120099000D01*
X115064009Y-120117339D01*
G37*
G36*
X111922823Y-120469423D02*
G01*
X111776689Y-120494111D01*
X111765787Y-120494068D01*
X111597931Y-120478907D01*
X111543116Y-120444722D01*
X111569204Y-120385211D01*
X111597890Y-120310667D01*
X111679903Y-120310667D01*
X111722378Y-120353000D01*
X111764853Y-120310667D01*
X111722378Y-120268334D01*
X111679903Y-120310667D01*
X111597890Y-120310667D01*
X111630472Y-120226000D01*
X111673018Y-120127158D01*
X111723096Y-120127504D01*
X111810460Y-120268334D01*
X111834115Y-120310667D01*
X111922823Y-120469423D01*
G37*
G36*
X105523107Y-121798964D02*
G01*
X105496437Y-121883662D01*
X105316428Y-121984663D01*
X105297204Y-121992072D01*
X105124678Y-122077853D01*
X105053816Y-122149562D01*
X105001178Y-122193007D01*
X104841441Y-122215667D01*
X104812885Y-122214927D01*
X104659581Y-122164123D01*
X104634077Y-122062791D01*
X104726183Y-121952259D01*
X104925711Y-121873855D01*
X104926367Y-121873725D01*
X105030482Y-121846511D01*
X105220998Y-121793110D01*
X105412287Y-121762380D01*
X105523107Y-121798964D01*
G37*
G36*
X104687998Y-119030802D02*
G01*
X104849867Y-119095026D01*
X105007185Y-119208290D01*
X104998290Y-119325989D01*
X104825460Y-119455161D01*
X104625894Y-119547179D01*
X104480404Y-119587610D01*
X104386697Y-119553493D01*
X104398634Y-119456648D01*
X104522879Y-119346901D01*
X104578949Y-119314577D01*
X104626466Y-119258996D01*
X104522879Y-119206636D01*
X104443417Y-119158427D01*
X104374217Y-119036041D01*
X104391583Y-118977687D01*
X104482411Y-118969703D01*
X104687998Y-119030802D01*
G37*
G36*
X118537988Y-111417123D02*
G01*
X118519236Y-111620403D01*
X118500823Y-111701533D01*
X118501883Y-111785107D01*
X118571818Y-111738167D01*
X118704858Y-111653956D01*
X118840403Y-111638887D01*
X118900639Y-111709206D01*
X118896460Y-111725103D01*
X118802775Y-111828099D01*
X118624552Y-111956192D01*
X118482322Y-112040790D01*
X118305907Y-112118582D01*
X118227787Y-112082770D01*
X118234119Y-111918020D01*
X118311057Y-111608999D01*
X118397152Y-111411073D01*
X118485196Y-111346684D01*
X118537988Y-111417123D01*
G37*
G36*
X114612055Y-120101621D02*
G01*
X114711397Y-120167080D01*
X114738097Y-120353000D01*
X114738089Y-120356289D01*
X114710034Y-120533470D01*
X114643938Y-120607000D01*
X114592193Y-120561605D01*
X114603081Y-120395334D01*
X114618433Y-120253401D01*
X114564802Y-120183667D01*
X114533371Y-120190355D01*
X114525722Y-120268334D01*
X114538996Y-120301130D01*
X114488261Y-120353000D01*
X114446819Y-120338630D01*
X114398297Y-120226000D01*
X114429832Y-120151940D01*
X114568197Y-120099000D01*
X114612055Y-120101621D01*
G37*
G36*
X120535923Y-123699564D02*
G01*
X120743250Y-123735796D01*
X120893174Y-123776658D01*
X120933716Y-123827288D01*
X120898317Y-123906811D01*
X120831414Y-123951582D01*
X120670145Y-123946766D01*
X120599001Y-123926767D01*
X120541896Y-123944757D01*
X120596273Y-124072071D01*
X120644154Y-124203792D01*
X120637031Y-124340525D01*
X120615497Y-124354553D01*
X120515899Y-124298666D01*
X120378253Y-124131600D01*
X120351439Y-124091939D01*
X120210334Y-123853997D01*
X120189494Y-123721761D01*
X120295747Y-123676521D01*
X120535923Y-123699564D01*
G37*
G36*
X119722078Y-112407832D02*
G01*
X119922457Y-112595450D01*
X119649572Y-112876057D01*
X119597939Y-112927454D01*
X119407165Y-113073452D01*
X119292698Y-113072953D01*
X119278568Y-112962010D01*
X119408966Y-112776789D01*
X119524013Y-112628015D01*
X119551001Y-112517479D01*
X119468976Y-112511374D01*
X119297513Y-112634663D01*
X119203072Y-112713029D01*
X119072389Y-112767798D01*
X119038218Y-112698182D01*
X119122531Y-112518738D01*
X119125992Y-112513500D01*
X119314574Y-112312132D01*
X119509182Y-112277665D01*
X119722078Y-112407832D01*
G37*
G36*
X122056150Y-117101966D02*
G01*
X122124287Y-117241348D01*
X122102536Y-117414716D01*
X122000226Y-117528796D01*
X121912122Y-117538798D01*
X121745376Y-117473439D01*
X121735165Y-117465083D01*
X121641721Y-117416509D01*
X121619033Y-117506300D01*
X121592906Y-117610487D01*
X121507439Y-117631891D01*
X121418413Y-117516667D01*
X121404026Y-117310967D01*
X121505352Y-117174423D01*
X121672883Y-117139294D01*
X121856893Y-117237267D01*
X121936468Y-117287147D01*
X121958833Y-117189937D01*
X121973549Y-117115477D01*
X122043782Y-117093334D01*
X122056150Y-117101966D01*
G37*
G36*
X107647080Y-125210495D02*
G01*
X107744789Y-125293183D01*
X107765369Y-125443167D01*
X107690363Y-125580994D01*
X107537434Y-125637820D01*
X107508049Y-125637249D01*
X107390499Y-125670646D01*
X107397686Y-125796003D01*
X107412865Y-125907326D01*
X107335138Y-125922795D01*
X107262120Y-125851791D01*
X107220037Y-125679945D01*
X107262536Y-125517747D01*
X107424945Y-125446480D01*
X107455664Y-125441806D01*
X107561537Y-125404627D01*
X107512355Y-125345250D01*
X107506230Y-125341379D01*
X107439889Y-125251128D01*
X107500494Y-125193842D01*
X107647080Y-125210495D01*
G37*
G36*
X117660618Y-126296952D02*
G01*
X117799534Y-126368827D01*
X117835892Y-126548733D01*
X117846076Y-126701658D01*
X117878367Y-126771540D01*
X117918898Y-126769337D01*
X118017837Y-126803486D01*
X117966190Y-126914667D01*
X117897766Y-126984186D01*
X117796291Y-127041667D01*
X117683169Y-126985749D01*
X117599104Y-126821356D01*
X117594840Y-126613928D01*
X117605913Y-126561349D01*
X117609749Y-126473791D01*
X117553429Y-126531215D01*
X117451692Y-126608182D01*
X117386378Y-126555068D01*
X117403142Y-126404380D01*
X117466270Y-126327105D01*
X117647249Y-126294895D01*
X117660618Y-126296952D01*
G37*
G36*
X108161635Y-110978235D02*
G01*
X108164819Y-111085691D01*
X108159754Y-111138820D01*
X108212616Y-111322848D01*
X108333673Y-111546471D01*
X108397809Y-111652087D01*
X108485340Y-111851125D01*
X108492714Y-111973532D01*
X108453319Y-111989041D01*
X108333049Y-111902079D01*
X108156968Y-111684140D01*
X108035661Y-111525189D01*
X107903295Y-111382245D01*
X107832434Y-111346533D01*
X107802934Y-111361044D01*
X107681357Y-111332363D01*
X107674510Y-111327868D01*
X107652950Y-111244036D01*
X107781892Y-111114101D01*
X107872786Y-111050604D01*
X108053371Y-110967350D01*
X108161635Y-110978235D01*
G37*
G36*
X106837762Y-123660992D02*
G01*
X106801667Y-123770705D01*
X106702234Y-123983124D01*
X106561675Y-124249090D01*
X106428459Y-124471511D01*
X106289532Y-124644166D01*
X106202766Y-124664318D01*
X106168379Y-124592741D01*
X106224723Y-124414887D01*
X106267407Y-124340894D01*
X106265294Y-124263618D01*
X106121422Y-124247667D01*
X105966503Y-124233921D01*
X105874839Y-124179129D01*
X105935275Y-124107914D01*
X106144597Y-124047983D01*
X106411333Y-123962491D01*
X106582157Y-123783408D01*
X106590748Y-123767745D01*
X106706006Y-123613528D01*
X106799330Y-123572682D01*
X106837762Y-123660992D01*
G37*
G36*
X116809432Y-110398238D02*
G01*
X116861843Y-110543454D01*
X116819340Y-110662878D01*
X116670705Y-110783028D01*
X116628242Y-110800589D01*
X116550852Y-110848294D01*
X116628230Y-110864967D01*
X116706532Y-110880575D01*
X116776893Y-110955000D01*
X116724165Y-111010684D01*
X116564518Y-111039667D01*
X116521129Y-111038556D01*
X116386208Y-110987776D01*
X116352144Y-110825272D01*
X116382752Y-110675517D01*
X116543281Y-110534305D01*
X116643324Y-110480870D01*
X116623217Y-110452367D01*
X116579661Y-110441809D01*
X116562225Y-110366031D01*
X116581257Y-110342275D01*
X116694670Y-110318604D01*
X116809432Y-110398238D01*
G37*
G36*
X115733173Y-127175293D02*
G01*
X115866373Y-127309061D01*
X116012218Y-127478898D01*
X116130237Y-127638150D01*
X116179959Y-127740167D01*
X116179998Y-127746347D01*
X116124663Y-127804338D01*
X116003524Y-127768567D01*
X115875749Y-127655500D01*
X115826367Y-127592853D01*
X115772058Y-127562090D01*
X115760196Y-127683722D01*
X115748620Y-127793720D01*
X115700861Y-127916556D01*
X115679660Y-127936392D01*
X115589740Y-127965968D01*
X115552991Y-127846313D01*
X115566858Y-127570834D01*
X115582657Y-127440393D01*
X115617392Y-127228855D01*
X115647909Y-127126875D01*
X115653092Y-127124245D01*
X115733173Y-127175293D01*
G37*
G36*
X113117343Y-120204834D02*
G01*
X113115941Y-120242420D01*
X113096529Y-120372197D01*
X113064585Y-120364587D01*
X113016737Y-120292574D01*
X112948486Y-120362135D01*
X112904390Y-120419995D01*
X112838919Y-120434017D01*
X112820961Y-120333228D01*
X112864721Y-120153076D01*
X112909439Y-120054965D01*
X112972300Y-120054965D01*
X112982467Y-120155445D01*
X113008018Y-120168690D01*
X113039100Y-120099000D01*
X113032969Y-120054178D01*
X112982467Y-120042556D01*
X112972300Y-120054965D01*
X112909439Y-120054965D01*
X112913340Y-120046407D01*
X113014481Y-119939663D01*
X113090910Y-119994198D01*
X113104062Y-120099000D01*
X113117343Y-120204834D01*
G37*
G36*
X112942512Y-109093905D02*
G01*
X113034128Y-109130382D01*
X113094419Y-109239593D01*
X113135201Y-109453720D01*
X113168288Y-109804948D01*
X113181649Y-110006429D01*
X113182100Y-110226866D01*
X113150860Y-110334145D01*
X113082698Y-110362334D01*
X112993021Y-110311791D01*
X112954150Y-110113330D01*
X112930870Y-109926682D01*
X112870940Y-109813072D01*
X112836774Y-109750136D01*
X112892178Y-109585346D01*
X112905474Y-109562434D01*
X112953788Y-109431436D01*
X112890438Y-109370549D01*
X112882728Y-109367550D01*
X112794499Y-109270414D01*
X112804102Y-109150794D01*
X112906662Y-109092334D01*
X112942512Y-109093905D01*
G37*
G36*
X105146334Y-120608540D02*
G01*
X105237791Y-120693394D01*
X105266443Y-120850324D01*
X105214779Y-120998732D01*
X105177141Y-121038600D01*
X104999959Y-121109671D01*
X104815956Y-121013400D01*
X104739091Y-120954496D01*
X104714016Y-121013400D01*
X104708740Y-121048564D01*
X104629067Y-121115000D01*
X104571611Y-121084819D01*
X104544978Y-120963116D01*
X104581441Y-120816922D01*
X104672623Y-120721871D01*
X104760727Y-120711869D01*
X104927473Y-120777228D01*
X104937684Y-120785584D01*
X105031128Y-120834158D01*
X105053816Y-120744367D01*
X105063827Y-120676373D01*
X105129677Y-120607000D01*
X105146334Y-120608540D01*
G37*
G36*
X104889607Y-117586932D02*
G01*
X105065146Y-117648830D01*
X105138766Y-117729947D01*
X105135647Y-117741850D01*
X105034938Y-117792460D01*
X104836428Y-117813000D01*
X104663160Y-117827863D01*
X104586851Y-117878346D01*
X104663368Y-117946368D01*
X104887778Y-118012737D01*
X104905371Y-118016455D01*
X105062631Y-118077801D01*
X105096907Y-118150672D01*
X105080235Y-118171371D01*
X104926890Y-118230130D01*
X104713244Y-118215344D01*
X104515286Y-118129747D01*
X104437634Y-118036177D01*
X104399862Y-117848712D01*
X104450293Y-117670057D01*
X104580453Y-117572669D01*
X104680129Y-117563402D01*
X104889607Y-117586932D01*
G37*
G36*
X104688740Y-115653205D02*
G01*
X104893726Y-115822095D01*
X105021181Y-115929150D01*
X105219321Y-116066100D01*
X105351385Y-116119667D01*
X105414614Y-116137809D01*
X105478565Y-116255845D01*
X105475815Y-116293517D01*
X105415725Y-116354649D01*
X105244953Y-116328706D01*
X104884883Y-116275918D01*
X104472090Y-116331262D01*
X104358337Y-116341687D01*
X104304259Y-116286717D01*
X104364843Y-116183538D01*
X104531848Y-116068403D01*
X104597601Y-116033240D01*
X104664929Y-115959467D01*
X104593901Y-115871713D01*
X104533831Y-115796088D01*
X104516257Y-115646571D01*
X104570328Y-115600807D01*
X104688740Y-115653205D01*
G37*
G36*
X121118186Y-121929007D02*
G01*
X121300471Y-122013640D01*
X121419305Y-122077197D01*
X121594642Y-122206130D01*
X121642482Y-122339554D01*
X121586239Y-122518867D01*
X121536337Y-122621298D01*
X121462574Y-122703478D01*
X121343671Y-122701990D01*
X121122011Y-122630718D01*
X121102865Y-122623739D01*
X120926814Y-122522276D01*
X120854485Y-122409993D01*
X120879917Y-122333772D01*
X121003147Y-122343214D01*
X121175086Y-122408388D01*
X121381014Y-122455059D01*
X121449134Y-122408465D01*
X121392876Y-122328180D01*
X121236759Y-122231072D01*
X121094185Y-122132210D01*
X121024384Y-122003641D01*
X121040308Y-121928021D01*
X121118186Y-121929007D01*
G37*
G36*
X112700210Y-120351307D02*
G01*
X112600651Y-120446781D01*
X112383433Y-120499496D01*
X112377226Y-120499439D01*
X112246616Y-120487067D01*
X112253314Y-120460690D01*
X112309872Y-120416581D01*
X112358821Y-120268334D01*
X112444451Y-120268334D01*
X112460381Y-120366754D01*
X112529401Y-120437667D01*
X112578776Y-120405914D01*
X112614351Y-120268334D01*
X112598421Y-120169913D01*
X112529401Y-120099000D01*
X112480026Y-120130753D01*
X112444451Y-120268334D01*
X112358821Y-120268334D01*
X112359501Y-120266275D01*
X112387304Y-120129790D01*
X112499837Y-120042622D01*
X112658762Y-120100602D01*
X112726142Y-120186952D01*
X112713302Y-120268334D01*
X112700210Y-120351307D01*
G37*
G36*
X108099309Y-112185000D02*
G01*
X107971419Y-112408833D01*
X107822339Y-112538158D01*
X107689308Y-112534956D01*
X107517361Y-112394334D01*
X107402178Y-112251730D01*
X107372924Y-112112151D01*
X107617319Y-112112151D01*
X107632292Y-112165687D01*
X107717675Y-112274715D01*
X107812403Y-112271521D01*
X107857160Y-112147389D01*
X107833791Y-112042220D01*
X107723507Y-111971000D01*
X107653913Y-111991314D01*
X107617319Y-112112151D01*
X107372924Y-112112151D01*
X107359576Y-112048466D01*
X107480954Y-111850048D01*
X107591941Y-111759559D01*
X107761803Y-111732168D01*
X107956659Y-111857122D01*
X108058555Y-111975690D01*
X108091986Y-112147389D01*
X108099309Y-112185000D01*
G37*
G36*
X114044612Y-110109891D02*
G01*
X113925005Y-110313953D01*
X113812784Y-110414778D01*
X113707179Y-110434410D01*
X113543214Y-110359355D01*
X113439606Y-110261162D01*
X113377345Y-110055631D01*
X113390957Y-109975053D01*
X113582945Y-109975053D01*
X113586699Y-110100956D01*
X113609692Y-110131521D01*
X113714624Y-110193000D01*
X113805165Y-110130378D01*
X113840839Y-109996687D01*
X113792537Y-109889822D01*
X113676619Y-109883800D01*
X113582945Y-109975053D01*
X113390957Y-109975053D01*
X113413946Y-109838973D01*
X113548799Y-109685000D01*
X113565834Y-109676355D01*
X113778486Y-109642698D01*
X113946041Y-109731947D01*
X114043187Y-109901784D01*
X114043837Y-109996687D01*
X114044612Y-110109891D01*
G37*
G36*
X111822679Y-109391241D02*
G01*
X112014478Y-109510460D01*
X112066741Y-109572187D01*
X112174024Y-109838604D01*
X112167875Y-110132888D01*
X112045627Y-110380561D01*
X112007153Y-110417338D01*
X111822093Y-110503717D01*
X111640225Y-110490390D01*
X111528884Y-110377726D01*
X111525127Y-110327216D01*
X111607180Y-110281925D01*
X111723096Y-110291841D01*
X111882885Y-110248396D01*
X111962958Y-110094645D01*
X111974524Y-110039955D01*
X111953780Y-109806566D01*
X111827761Y-109654004D01*
X111625797Y-109623272D01*
X111600287Y-109627830D01*
X111462836Y-109622366D01*
X111443047Y-109525876D01*
X111479349Y-109446405D01*
X111624962Y-109370411D01*
X111822679Y-109391241D01*
G37*
G36*
X109941246Y-127259678D02*
G01*
X109816636Y-127556917D01*
X109558972Y-127424118D01*
X109413188Y-127314302D01*
X109316439Y-127122628D01*
X109323740Y-127022991D01*
X109518713Y-127022991D01*
X109525424Y-127171092D01*
X109606680Y-127236622D01*
X109719631Y-127176383D01*
X109771414Y-127075924D01*
X109756330Y-126935359D01*
X109645182Y-126872334D01*
X109611980Y-126882537D01*
X109530630Y-126985845D01*
X109518713Y-127022991D01*
X109323740Y-127022991D01*
X109330821Y-126926361D01*
X109437987Y-126767925D01*
X109619593Y-126689743D01*
X109857294Y-126734238D01*
X109977516Y-126796177D01*
X110049288Y-126881159D01*
X110034494Y-127018735D01*
X110012361Y-127075924D01*
X109941246Y-127259678D01*
G37*
G36*
X104862203Y-116667628D02*
G01*
X105059690Y-116733883D01*
X105258070Y-116877138D01*
X105300919Y-117053732D01*
X105181133Y-117250678D01*
X105153532Y-117275922D01*
X105004330Y-117335699D01*
X104778183Y-117299059D01*
X104754142Y-117292216D01*
X104567192Y-117241227D01*
X104475952Y-117220334D01*
X104470089Y-117212732D01*
X104506931Y-117127137D01*
X104610712Y-117075838D01*
X104809269Y-117082687D01*
X104844145Y-117089192D01*
X105006870Y-117090180D01*
X105053816Y-117006550D01*
X105011325Y-116925165D01*
X104841441Y-116881667D01*
X104701310Y-116856802D01*
X104629067Y-116745488D01*
X104631252Y-116712139D01*
X104690725Y-116646304D01*
X104862203Y-116667628D01*
G37*
G36*
X122209531Y-120149420D02*
G01*
X122111742Y-120336067D01*
X122049793Y-120385077D01*
X121828794Y-120430042D01*
X121582744Y-120325645D01*
X121550874Y-120300320D01*
X121470177Y-120163147D01*
X121479013Y-120056667D01*
X121703983Y-120056667D01*
X121731743Y-120133954D01*
X121849786Y-120184556D01*
X121984840Y-120129524D01*
X122012703Y-120076567D01*
X121965441Y-119976538D01*
X121826394Y-119929667D01*
X121769413Y-119944360D01*
X121703983Y-120056667D01*
X121479013Y-120056667D01*
X121488308Y-119944645D01*
X121506580Y-119873235D01*
X121592996Y-119721948D01*
X121751794Y-119679203D01*
X122022545Y-119729031D01*
X122108041Y-119774414D01*
X122204918Y-119939203D01*
X122207932Y-120076567D01*
X122209531Y-120149420D01*
G37*
G36*
X121222263Y-123319856D02*
G01*
X121222240Y-123319902D01*
X121057765Y-123519453D01*
X120858254Y-123560250D01*
X120648178Y-123437286D01*
X120578559Y-123350583D01*
X120542067Y-123189334D01*
X120769535Y-123189334D01*
X120784336Y-123248561D01*
X120896960Y-123316334D01*
X120956385Y-123301582D01*
X121024384Y-123189334D01*
X121009583Y-123130106D01*
X120896960Y-123062334D01*
X120837534Y-123077085D01*
X120769535Y-123189334D01*
X120542067Y-123189334D01*
X120525759Y-123117273D01*
X120637850Y-122865141D01*
X120676955Y-122817467D01*
X120789805Y-122755650D01*
X120953710Y-122812875D01*
X121136893Y-122913151D01*
X121272323Y-123024602D01*
X121292889Y-123145274D01*
X121275065Y-123189334D01*
X121222263Y-123319856D01*
G37*
G36*
X114937291Y-109799076D02*
G01*
X114992946Y-109939000D01*
X115019728Y-110065188D01*
X115103315Y-110099242D01*
X115193566Y-109981334D01*
X115268372Y-109882228D01*
X115368660Y-109860737D01*
X115417695Y-109946812D01*
X115370428Y-110071641D01*
X115254549Y-110246007D01*
X115241015Y-110263469D01*
X115139008Y-110469692D01*
X115163669Y-110703861D01*
X115180596Y-110767060D01*
X115192282Y-110913984D01*
X115120166Y-110955000D01*
X115055000Y-110940249D01*
X114989002Y-110859505D01*
X114930664Y-110678088D01*
X114865521Y-110362334D01*
X114862634Y-110346920D01*
X114812621Y-110101987D01*
X114768505Y-109917834D01*
X114763382Y-109826720D01*
X114859797Y-109769667D01*
X114937291Y-109799076D01*
G37*
G36*
X114749788Y-127396294D02*
G01*
X114806625Y-127508045D01*
X114823047Y-127754278D01*
X114819318Y-127858663D01*
X114785293Y-128063838D01*
X114727284Y-128160037D01*
X114628877Y-128182538D01*
X114429960Y-128208477D01*
X114376495Y-128211460D01*
X114278277Y-128186558D01*
X114236882Y-128078794D01*
X114228398Y-127845052D01*
X114228449Y-127829916D01*
X114250167Y-127583224D01*
X114300860Y-127476073D01*
X114365242Y-127518115D01*
X114428030Y-127719000D01*
X114428839Y-127722974D01*
X114493145Y-127899695D01*
X114575527Y-127973000D01*
X114633785Y-127900068D01*
X114616277Y-127676667D01*
X114596347Y-127548055D01*
X114608408Y-127415510D01*
X114691772Y-127380334D01*
X114749788Y-127396294D01*
G37*
G36*
X111247059Y-110553574D02*
G01*
X111052200Y-110702417D01*
X110999169Y-110722487D01*
X110819782Y-110749925D01*
X110707274Y-110657302D01*
X110624447Y-110420063D01*
X110603733Y-110334151D01*
X110845413Y-110334151D01*
X110860386Y-110387687D01*
X110945769Y-110496715D01*
X111040497Y-110493521D01*
X111085254Y-110369389D01*
X111061885Y-110264220D01*
X110951600Y-110193000D01*
X110882007Y-110213314D01*
X110845413Y-110334151D01*
X110603733Y-110334151D01*
X110589648Y-110275736D01*
X110578153Y-110118205D01*
X110654068Y-110038179D01*
X110844952Y-109980754D01*
X110900028Y-109968753D01*
X111070786Y-109984777D01*
X111207742Y-110131275D01*
X111292101Y-110340361D01*
X111285969Y-110369389D01*
X111247059Y-110553574D01*
G37*
G36*
X107271048Y-125019813D02*
G01*
X107124231Y-125190294D01*
X106887585Y-125436475D01*
X106677363Y-125226954D01*
X106564198Y-125101542D01*
X106516888Y-124972330D01*
X106752812Y-124972330D01*
X106765325Y-125026770D01*
X106871149Y-125094334D01*
X106881675Y-125093925D01*
X106999387Y-125026937D01*
X107052018Y-124900836D01*
X107003952Y-124795715D01*
X106940850Y-124773939D01*
X106811192Y-124824309D01*
X106752812Y-124972330D01*
X106516888Y-124972330D01*
X106514920Y-124966954D01*
X106565681Y-124801883D01*
X106650758Y-124683036D01*
X106850366Y-124586210D01*
X107070677Y-124612480D01*
X107248785Y-124765223D01*
X107252288Y-124770845D01*
X107307809Y-124900217D01*
X107307619Y-124900836D01*
X107271048Y-125019813D01*
G37*
G36*
X106276511Y-113262186D02*
G01*
X106408660Y-113354745D01*
X106563357Y-113491890D01*
X106692531Y-113630594D01*
X106748112Y-113727834D01*
X106748298Y-113732427D01*
X106729019Y-113819008D01*
X106640183Y-113807763D01*
X106449848Y-113695198D01*
X106282490Y-113616019D01*
X106176750Y-113619786D01*
X106187295Y-113698220D01*
X106306826Y-113810916D01*
X106433551Y-113925343D01*
X106497963Y-114055660D01*
X106497340Y-114077383D01*
X106450903Y-114164171D01*
X106326264Y-114112394D01*
X106117091Y-113919792D01*
X106028416Y-113826388D01*
X105933363Y-113699638D01*
X105939778Y-113602998D01*
X106036580Y-113475292D01*
X106154887Y-113332507D01*
X106216760Y-113252252D01*
X106276511Y-113262186D01*
G37*
G36*
X122258380Y-119240171D02*
G01*
X122193924Y-119400500D01*
X122038162Y-119488962D01*
X121819633Y-119493264D01*
X121636023Y-119404734D01*
X121568507Y-119277617D01*
X121543916Y-119126493D01*
X121763208Y-119126493D01*
X121771449Y-119152873D01*
X121865306Y-119229742D01*
X121984803Y-119220443D01*
X122043782Y-119125334D01*
X122021455Y-119047473D01*
X121895120Y-119014452D01*
X121818022Y-119042868D01*
X121763208Y-119126493D01*
X121543916Y-119126493D01*
X121534083Y-119066067D01*
X121535547Y-118994072D01*
X121566783Y-118882567D01*
X121674661Y-118837443D01*
X121905739Y-118829000D01*
X122013769Y-118829869D01*
X122191338Y-118849388D01*
X122264080Y-118916999D01*
X122278657Y-119061834D01*
X122271437Y-119125334D01*
X122258380Y-119240171D01*
G37*
G36*
X120365425Y-112649769D02*
G01*
X120448373Y-112706216D01*
X120383534Y-112844066D01*
X120171325Y-113062255D01*
X119994793Y-113235590D01*
X119898894Y-113383340D01*
X119913871Y-113491984D01*
X119929222Y-113512983D01*
X120005278Y-113549566D01*
X120129968Y-113496101D01*
X120340527Y-113339258D01*
X120577721Y-113176564D01*
X120741962Y-113114170D01*
X120804602Y-113148975D01*
X120747031Y-113269800D01*
X120550635Y-113465466D01*
X120388116Y-113587077D01*
X120105179Y-113719350D01*
X119875559Y-113723800D01*
X119721485Y-113603078D01*
X119665187Y-113359838D01*
X119700775Y-113252613D01*
X119830440Y-113063827D01*
X120010688Y-112866592D01*
X120194182Y-112711297D01*
X120333583Y-112648334D01*
X120365425Y-112649769D01*
G37*
G36*
X111770071Y-127784353D02*
G01*
X111743807Y-127878808D01*
X111678137Y-128039923D01*
X111581580Y-128089034D01*
X111403451Y-128064931D01*
X111364905Y-128055946D01*
X111156319Y-127934790D01*
X111090005Y-127730371D01*
X111093111Y-127720230D01*
X111295093Y-127720230D01*
X111317640Y-127837723D01*
X111423542Y-127885998D01*
X111542633Y-127824644D01*
X111594953Y-127662556D01*
X111583432Y-127614112D01*
X111476617Y-127549667D01*
X111369793Y-127596635D01*
X111295093Y-127720230D01*
X111093111Y-127720230D01*
X111172703Y-127460346D01*
X111209702Y-127399813D01*
X111329331Y-127316326D01*
X111532880Y-127329860D01*
X111705985Y-127367767D01*
X111814830Y-127427988D01*
X111827302Y-127549816D01*
X111799792Y-127662556D01*
X111770071Y-127784353D01*
G37*
G36*
X113766232Y-127581937D02*
G01*
X113896958Y-127800824D01*
X113956550Y-128173348D01*
X113959910Y-128398232D01*
X113934127Y-128594081D01*
X113884591Y-128634227D01*
X113825151Y-128514438D01*
X113769655Y-128230480D01*
X113745166Y-128084426D01*
X113685467Y-127864913D01*
X113621788Y-127753966D01*
X113553454Y-127733757D01*
X113459608Y-127810375D01*
X113412761Y-128006155D01*
X113424184Y-128290500D01*
X113444461Y-128495566D01*
X113422281Y-128618269D01*
X113341630Y-128650334D01*
X113316392Y-128647953D01*
X113250897Y-128591017D01*
X113218016Y-128432798D01*
X113209000Y-128139605D01*
X113212132Y-127924502D01*
X113234913Y-127724283D01*
X113292621Y-127616282D01*
X113400137Y-127554992D01*
X113564454Y-127516779D01*
X113766232Y-127581937D01*
G37*
G36*
X110827416Y-127639900D02*
G01*
X110695228Y-127760367D01*
X110473319Y-127799015D01*
X110241525Y-127724346D01*
X110195067Y-127683903D01*
X110168907Y-127590324D01*
X110195377Y-127419595D01*
X110195920Y-127417670D01*
X110405655Y-127417670D01*
X110419772Y-127498402D01*
X110502237Y-127595278D01*
X110606181Y-127575587D01*
X110654753Y-127492308D01*
X110639936Y-127358805D01*
X110533080Y-127295667D01*
X110473765Y-127309782D01*
X110405655Y-127417670D01*
X110195920Y-127417670D01*
X110276927Y-127130626D01*
X110364722Y-126883967D01*
X110456414Y-126703059D01*
X110526006Y-126645934D01*
X110570450Y-126685467D01*
X110590965Y-126826745D01*
X110614803Y-126950791D01*
X110739628Y-127097929D01*
X110839758Y-127186923D01*
X110909770Y-127384212D01*
X110874954Y-127492308D01*
X110827416Y-127639900D01*
G37*
G36*
X122239863Y-118329627D02*
G01*
X122206591Y-118462941D01*
X122090014Y-118517531D01*
X122056544Y-118523914D01*
X121768924Y-118559582D01*
X121513477Y-118562477D01*
X121317742Y-118538449D01*
X121209256Y-118493349D01*
X121215557Y-118433027D01*
X121364184Y-118363334D01*
X121466974Y-118299077D01*
X121504138Y-118194000D01*
X121703983Y-118194000D01*
X121735517Y-118268061D01*
X121873883Y-118321000D01*
X121972960Y-118297428D01*
X122043782Y-118194000D01*
X122012248Y-118119940D01*
X121873883Y-118067000D01*
X121774805Y-118090572D01*
X121703983Y-118194000D01*
X121504138Y-118194000D01*
X121534083Y-118109334D01*
X121534084Y-118108806D01*
X121604951Y-117925676D01*
X121786845Y-117832557D01*
X122034825Y-117852500D01*
X122152487Y-117945714D01*
X122229719Y-118193266D01*
X122229774Y-118194000D01*
X122239863Y-118329627D01*
G37*
G36*
X121873883Y-116150386D02*
G01*
X121846498Y-116203000D01*
X121740390Y-116325286D01*
X121669477Y-116377787D01*
X121478161Y-116445543D01*
X121285847Y-116454308D01*
X121168568Y-116394834D01*
X121132846Y-116301266D01*
X121081047Y-116114628D01*
X121080953Y-116113771D01*
X121321709Y-116113771D01*
X121337590Y-116185290D01*
X121437638Y-116268619D01*
X121560630Y-116234320D01*
X121619753Y-116123281D01*
X121589624Y-116002784D01*
X121470371Y-115966452D01*
X121392323Y-115999239D01*
X121321709Y-116113771D01*
X121080953Y-116113771D01*
X121065673Y-115974794D01*
X121134495Y-115876488D01*
X121330512Y-115789356D01*
X121384152Y-115770620D01*
X121569207Y-115716781D01*
X121656361Y-115709728D01*
X121683594Y-115749821D01*
X121762236Y-115894036D01*
X121839203Y-116054981D01*
X121864030Y-116123281D01*
X121873883Y-116150386D01*
G37*
G36*
X110466554Y-110672354D02*
G01*
X110546161Y-110894274D01*
X110604623Y-111110879D01*
X110609346Y-111223004D01*
X110542579Y-111264743D01*
X110449965Y-111210447D01*
X110405655Y-111075390D01*
X110364235Y-110994719D01*
X110205493Y-111001844D01*
X110050850Y-111005023D01*
X109868549Y-110909674D01*
X109751859Y-110741923D01*
X109736977Y-110611337D01*
X109980906Y-110611337D01*
X109994579Y-110708605D01*
X110066456Y-110828370D01*
X110089379Y-110837850D01*
X110175054Y-110794274D01*
X110221035Y-110669787D01*
X110195795Y-110535721D01*
X110129091Y-110464329D01*
X110026958Y-110469879D01*
X109980906Y-110611337D01*
X109736977Y-110611337D01*
X109730013Y-110550232D01*
X109832244Y-110383063D01*
X110033561Y-110253760D01*
X110194010Y-110246506D01*
X110329481Y-110381997D01*
X110465342Y-110669787D01*
X110466554Y-110672354D01*
G37*
G36*
X108335568Y-126246572D02*
G01*
X108235464Y-126335364D01*
X108104441Y-126424163D01*
X108004041Y-126434607D01*
X107851576Y-126361355D01*
X107714034Y-126219322D01*
X107712647Y-126150965D01*
X107960260Y-126150965D01*
X107970427Y-126251445D01*
X107995978Y-126264690D01*
X108027060Y-126195000D01*
X108020929Y-126150178D01*
X107970427Y-126138556D01*
X107960260Y-126150965D01*
X107712647Y-126150965D01*
X107710046Y-126022791D01*
X107850840Y-125819701D01*
X108004619Y-125724512D01*
X108220818Y-125722345D01*
X108397224Y-125873439D01*
X108423996Y-125922562D01*
X108438639Y-126056294D01*
X108358748Y-126090134D01*
X108233367Y-125989381D01*
X108141733Y-125898050D01*
X108054300Y-125885628D01*
X108069686Y-125966910D01*
X108193113Y-126083311D01*
X108311032Y-126172701D01*
X108318439Y-126195000D01*
X108335568Y-126246572D01*
G37*
G36*
X119403999Y-125758440D02*
G01*
X119308398Y-125924067D01*
X119159213Y-126012503D01*
X118952706Y-125989445D01*
X118769135Y-125819678D01*
X118745113Y-125771667D01*
X119070538Y-125771667D01*
X119071512Y-125790828D01*
X119108000Y-125856334D01*
X119121626Y-125852437D01*
X119197963Y-125771667D01*
X119211237Y-125738870D01*
X119160502Y-125687000D01*
X119135844Y-125690254D01*
X119070538Y-125771667D01*
X118745113Y-125771667D01*
X118716778Y-125715038D01*
X118702766Y-125496461D01*
X118807625Y-125330394D01*
X119009815Y-125266360D01*
X119111629Y-125270103D01*
X119145128Y-125300054D01*
X119034265Y-125392485D01*
X118941213Y-125486140D01*
X118926024Y-125571190D01*
X118979100Y-125584148D01*
X119107239Y-125522443D01*
X119190180Y-125473927D01*
X119321606Y-125486882D01*
X119400640Y-125597215D01*
X119403591Y-125738870D01*
X119403999Y-125758440D01*
G37*
G36*
X121515008Y-115280890D02*
G01*
X121410959Y-115437597D01*
X121264573Y-115560498D01*
X121054614Y-115606106D01*
X120872177Y-115493051D01*
X120749784Y-115251834D01*
X120960632Y-115251834D01*
X120972786Y-115317218D01*
X121102255Y-115357667D01*
X121207776Y-115334376D01*
X121279234Y-115224459D01*
X121270656Y-115180455D01*
X121180493Y-115120458D01*
X121052040Y-115146409D01*
X120960632Y-115251834D01*
X120749784Y-115251834D01*
X120737511Y-115227646D01*
X120728204Y-115141154D01*
X120785114Y-115046046D01*
X120942817Y-114936567D01*
X121229426Y-114787567D01*
X121370737Y-114719604D01*
X121617659Y-114616003D01*
X121757778Y-114589995D01*
X121818308Y-114634508D01*
X121787460Y-114741748D01*
X121617862Y-114850150D01*
X121498506Y-114905759D01*
X121425415Y-114988582D01*
X121471142Y-115107327D01*
X121490687Y-115140823D01*
X121505209Y-115224459D01*
X121515008Y-115280890D01*
G37*
G36*
X118126200Y-111405341D02*
G01*
X118046877Y-111595120D01*
X117889903Y-111697014D01*
X117690420Y-111692231D01*
X117525299Y-111582944D01*
X117456491Y-111390611D01*
X117458180Y-111355082D01*
X117496375Y-111320219D01*
X117612047Y-111407729D01*
X117727241Y-111485596D01*
X117823882Y-111491946D01*
X117817521Y-111424460D01*
X117706751Y-111314800D01*
X117673020Y-111290337D01*
X117606471Y-111209000D01*
X117838766Y-111209000D01*
X117856201Y-111234338D01*
X117928729Y-111293667D01*
X117937207Y-111291466D01*
X117966190Y-111209000D01*
X117962733Y-111185794D01*
X117876227Y-111124334D01*
X117845501Y-111130981D01*
X117838766Y-111209000D01*
X117606471Y-111209000D01*
X117585781Y-111183713D01*
X117636145Y-111070286D01*
X117725113Y-111005142D01*
X117916282Y-110972081D01*
X118022136Y-111026551D01*
X118113257Y-111193415D01*
X118114209Y-111209000D01*
X118126200Y-111405341D01*
G37*
G36*
X109631402Y-111008314D02*
G01*
X109614990Y-111217522D01*
X109497575Y-111365309D01*
X109456386Y-111384758D01*
X109300249Y-111409709D01*
X109187316Y-111371175D01*
X109179384Y-111284795D01*
X109207939Y-111254873D01*
X109348796Y-111209000D01*
X109402764Y-111200273D01*
X109471207Y-111124334D01*
X109461974Y-111068714D01*
X109387490Y-111048944D01*
X109209512Y-111127985D01*
X109071407Y-111171419D01*
X108996181Y-111092267D01*
X108985264Y-111053422D01*
X109013004Y-110858730D01*
X109036077Y-110826298D01*
X109234507Y-110826298D01*
X109244674Y-110926778D01*
X109270226Y-110940024D01*
X109301307Y-110870334D01*
X109295177Y-110825511D01*
X109244674Y-110813889D01*
X109234507Y-110826298D01*
X109036077Y-110826298D01*
X109133781Y-110688966D01*
X109301307Y-110616334D01*
X109425472Y-110650844D01*
X109562874Y-110798988D01*
X109586231Y-110870334D01*
X109631402Y-111008314D01*
G37*
G36*
X105631116Y-122216346D02*
G01*
X105727274Y-122259927D01*
X105686842Y-122349509D01*
X105521040Y-122454261D01*
X105377554Y-122542284D01*
X105308665Y-122637185D01*
X105308711Y-122645323D01*
X105325966Y-122710233D01*
X105406600Y-122708931D01*
X105597452Y-122642235D01*
X105730869Y-122605881D01*
X105849785Y-122627442D01*
X105834639Y-122718403D01*
X105672223Y-122843257D01*
X105659679Y-122849994D01*
X105403615Y-122957291D01*
X105245768Y-122944558D01*
X105163910Y-122810356D01*
X105162544Y-122805222D01*
X105096256Y-122693365D01*
X104965074Y-122725690D01*
X104964531Y-122725979D01*
X104772577Y-122794678D01*
X104611634Y-122800558D01*
X104544117Y-122741304D01*
X104593996Y-122685838D01*
X104758568Y-122581047D01*
X104991170Y-122457459D01*
X105242873Y-122339248D01*
X105464749Y-122250592D01*
X105607872Y-122215667D01*
X105631116Y-122216346D01*
G37*
G36*
X104798966Y-120226000D02*
G01*
X104798937Y-120231295D01*
X104746076Y-120398333D01*
X104620203Y-120429770D01*
X104462550Y-120314730D01*
X104398040Y-120183667D01*
X104544117Y-120183667D01*
X104546585Y-120203904D01*
X104629067Y-120268334D01*
X104649372Y-120265873D01*
X104714016Y-120183667D01*
X104711548Y-120163429D01*
X104629067Y-120099000D01*
X104608761Y-120101460D01*
X104544117Y-120183667D01*
X104398040Y-120183667D01*
X104393228Y-120173890D01*
X104421091Y-119994160D01*
X104551060Y-119855463D01*
X104745221Y-119793330D01*
X104965657Y-119843289D01*
X104992439Y-119860252D01*
X105105655Y-120017486D01*
X105142590Y-120218638D01*
X105084442Y-120378921D01*
X104992879Y-120409300D01*
X104924601Y-120327613D01*
X104928660Y-120176542D01*
X104941961Y-120079862D01*
X104889641Y-120014334D01*
X104829990Y-120066917D01*
X104807222Y-120183667D01*
X104798966Y-120226000D01*
G37*
G36*
X121440237Y-120522348D02*
G01*
X121535800Y-120587827D01*
X121659245Y-120742440D01*
X121690616Y-120786974D01*
X121835698Y-120906815D01*
X122030978Y-120916279D01*
X122319869Y-120820496D01*
X122439159Y-120797064D01*
X122467986Y-120851519D01*
X122403019Y-120948431D01*
X122256157Y-121045739D01*
X122217174Y-121064392D01*
X122070066Y-121170328D01*
X122067455Y-121251769D01*
X122213682Y-121284334D01*
X122278309Y-121289993D01*
X122381325Y-121356477D01*
X122342114Y-121466774D01*
X122276374Y-121475112D01*
X122083576Y-121457057D01*
X121816363Y-121411725D01*
X121594047Y-121356598D01*
X121387043Y-121274763D01*
X121290925Y-121196612D01*
X121322690Y-121138055D01*
X121499337Y-121115000D01*
X121733599Y-121115000D01*
X121548891Y-120919043D01*
X121531200Y-120899857D01*
X121400848Y-120715768D01*
X121366695Y-120577104D01*
X121439363Y-120522334D01*
X121440237Y-120522348D01*
G37*
G36*
X116848387Y-127364189D02*
G01*
X116759903Y-127532734D01*
X116700415Y-127577847D01*
X116522043Y-127634334D01*
X116511682Y-127634158D01*
X116321392Y-127557447D01*
X116235799Y-127427664D01*
X116522043Y-127427664D01*
X116522870Y-127439500D01*
X116572045Y-127458145D01*
X116657580Y-127367252D01*
X116678249Y-127319936D01*
X116620119Y-127329915D01*
X116582381Y-127356051D01*
X116522043Y-127427664D01*
X116235799Y-127427664D01*
X116205712Y-127382044D01*
X116186143Y-127167642D01*
X116284184Y-126973934D01*
X116362900Y-126918062D01*
X116515915Y-126875632D01*
X116640111Y-126895903D01*
X116670705Y-126978167D01*
X116651393Y-127016811D01*
X116543281Y-127084000D01*
X116517464Y-127086434D01*
X116380460Y-127157391D01*
X116373264Y-127166805D01*
X116419498Y-127192964D01*
X116585756Y-127171830D01*
X116729778Y-127147165D01*
X116836672Y-127168053D01*
X116861843Y-127272006D01*
X116854847Y-127319936D01*
X116848387Y-127364189D01*
G37*
G36*
X108786186Y-126149327D02*
G01*
X108832549Y-126218290D01*
X108781956Y-126382310D01*
X108745602Y-126453665D01*
X108737716Y-126524241D01*
X108845438Y-126494766D01*
X108936107Y-126460978D01*
X109165188Y-126423872D01*
X109275326Y-126504487D01*
X109277114Y-126521388D01*
X109199221Y-126612342D01*
X109016969Y-126698729D01*
X108918451Y-126732470D01*
X108788277Y-126805035D01*
X108750153Y-126924589D01*
X108771468Y-127151242D01*
X108782040Y-127232888D01*
X108794510Y-127404539D01*
X108763624Y-127447497D01*
X108677931Y-127391133D01*
X108589240Y-127269537D01*
X108536759Y-127057451D01*
X108533985Y-126942472D01*
X108505665Y-126897726D01*
X108422221Y-126996086D01*
X108329411Y-127080870D01*
X108212651Y-127093665D01*
X108199086Y-127049737D01*
X108241892Y-126889284D01*
X108348137Y-126654148D01*
X108498453Y-126385127D01*
X108673469Y-126123022D01*
X108687524Y-126116114D01*
X108786186Y-126149327D01*
G37*
G36*
X107153766Y-112297568D02*
G01*
X107234634Y-112471075D01*
X107326271Y-112681021D01*
X107401316Y-112864028D01*
X107432411Y-112956718D01*
X107374988Y-112975239D01*
X107215583Y-112951118D01*
X107111638Y-112928499D01*
X107041996Y-112946382D01*
X107085170Y-113057808D01*
X107125597Y-113165251D01*
X107115298Y-113274834D01*
X107071038Y-113295329D01*
X106927149Y-113277307D01*
X106780728Y-113220467D01*
X106561776Y-113139426D01*
X106456354Y-113089030D01*
X106381360Y-112993245D01*
X106447747Y-112929679D01*
X106639108Y-112940534D01*
X106734653Y-112961417D01*
X106803709Y-112942937D01*
X106757266Y-112825960D01*
X106751619Y-112815404D01*
X106678200Y-112646271D01*
X106718481Y-112588724D01*
X106889383Y-112615853D01*
X107007837Y-112641283D01*
X107068007Y-112617770D01*
X107016578Y-112495605D01*
X106967068Y-112365062D01*
X107013084Y-112263994D01*
X107047444Y-112245650D01*
X107122020Y-112237689D01*
X107153766Y-112297568D01*
G37*
G36*
X117775707Y-116945167D02*
G01*
X117770065Y-117572332D01*
X117760942Y-118397792D01*
X117749187Y-119084653D01*
X117732572Y-119651455D01*
X117708865Y-120116740D01*
X117675836Y-120499048D01*
X117631256Y-120816919D01*
X117572894Y-121088896D01*
X117498520Y-121333518D01*
X117405903Y-121569327D01*
X117292815Y-121814863D01*
X117157023Y-122088667D01*
X117123825Y-122153920D01*
X116584648Y-123038836D01*
X115928382Y-123818117D01*
X115141703Y-124505447D01*
X114211288Y-125114512D01*
X114033576Y-125214228D01*
X113742119Y-125369851D01*
X113521922Y-125477144D01*
X113410511Y-125517236D01*
X113371108Y-125514877D01*
X113118382Y-125441686D01*
X112776058Y-125280796D01*
X112375374Y-125052155D01*
X111947564Y-124775708D01*
X111523865Y-124471402D01*
X111135512Y-124159184D01*
X110813743Y-123859000D01*
X110361839Y-123357210D01*
X109836692Y-122635809D01*
X109431441Y-121870661D01*
X109118697Y-121015824D01*
X109097516Y-120944337D01*
X109054737Y-120785601D01*
X109019620Y-120620663D01*
X108991190Y-120431396D01*
X108968474Y-120199677D01*
X108950496Y-119907380D01*
X108936282Y-119536378D01*
X108924859Y-119068548D01*
X108915250Y-118485765D01*
X108906483Y-117769901D01*
X108897583Y-116902834D01*
X108865035Y-113579667D01*
X109034588Y-113579667D01*
X109068842Y-117029834D01*
X109073470Y-117486815D01*
X109083344Y-118325997D01*
X109095389Y-119023674D01*
X109111903Y-119598668D01*
X109135182Y-120069798D01*
X109167527Y-120455886D01*
X109211233Y-120775752D01*
X109268599Y-121048218D01*
X109341924Y-121292103D01*
X109433505Y-121526229D01*
X109545640Y-121769417D01*
X109680627Y-122040486D01*
X110151031Y-122835846D01*
X110784962Y-123618015D01*
X111551414Y-124312012D01*
X112463310Y-124931262D01*
X112638280Y-125031935D01*
X112945598Y-125193879D01*
X113192149Y-125305009D01*
X113336424Y-125345625D01*
X113387505Y-125340408D01*
X113636299Y-125258294D01*
X113972121Y-125092164D01*
X114362295Y-124862183D01*
X114774139Y-124588513D01*
X115174977Y-124291321D01*
X115532128Y-123990770D01*
X116125235Y-123382540D01*
X116733256Y-122556445D01*
X117190085Y-121664485D01*
X117489370Y-120717287D01*
X117506989Y-120633662D01*
X117540262Y-120432187D01*
X117566998Y-120189536D01*
X117587844Y-119887404D01*
X117603448Y-119507484D01*
X117614457Y-119031469D01*
X117621519Y-118441052D01*
X117625281Y-117717927D01*
X117626391Y-116843787D01*
X117626391Y-113579667D01*
X113330489Y-113579667D01*
X109034588Y-113579667D01*
X108865035Y-113579667D01*
X108863376Y-113410334D01*
X113334914Y-113410334D01*
X117806453Y-113410334D01*
X117804980Y-113579667D01*
X117775707Y-116945167D01*
G37*
G36*
X115544037Y-121797159D02*
G01*
X115572057Y-121901206D01*
X115565299Y-122098659D01*
X115531266Y-122333264D01*
X115477457Y-122548771D01*
X115411373Y-122688926D01*
X115351103Y-122735833D01*
X115193117Y-122749617D01*
X115147010Y-122745552D01*
X114975574Y-122821135D01*
X114753341Y-123002295D01*
X114549527Y-123181669D01*
X114244087Y-123422319D01*
X113931073Y-123646333D01*
X113906499Y-123662801D01*
X113649922Y-123828143D01*
X113449763Y-123945843D01*
X113347537Y-123991354D01*
X113247961Y-123960178D01*
X113035964Y-123847024D01*
X112760431Y-123675106D01*
X112459727Y-123469745D01*
X112172219Y-123256262D01*
X111936272Y-123059976D01*
X111784878Y-122932419D01*
X111560639Y-122787241D01*
X111410411Y-122752015D01*
X111406679Y-122752950D01*
X111276934Y-122718685D01*
X111175279Y-122532450D01*
X111165887Y-122504253D01*
X111113410Y-122278559D01*
X111087506Y-122046554D01*
X111091709Y-121865419D01*
X111129550Y-121792334D01*
X111163748Y-121805208D01*
X111308963Y-121886963D01*
X111517754Y-122019162D01*
X111615283Y-122087067D01*
X111790413Y-122254921D01*
X111822050Y-122396960D01*
X111825692Y-122479493D01*
X111934674Y-122622736D01*
X112184595Y-122805131D01*
X112328844Y-122892393D01*
X112649672Y-123033380D01*
X112882753Y-123040215D01*
X113038008Y-122914167D01*
X113071747Y-122861159D01*
X113115161Y-122819852D01*
X113105246Y-122935334D01*
X113028557Y-123068546D01*
X112820677Y-123130017D01*
X112711153Y-123124173D01*
X112469300Y-123049666D01*
X112206357Y-122917294D01*
X111967706Y-122755450D01*
X111798730Y-122592528D01*
X111744814Y-122456920D01*
X111740076Y-122413171D01*
X111646214Y-122261982D01*
X111468727Y-122095318D01*
X111439206Y-122073036D01*
X111269541Y-121961547D01*
X111186632Y-121964198D01*
X111176205Y-122097466D01*
X111223982Y-122377830D01*
X111226830Y-122391623D01*
X111301198Y-122579855D01*
X111420901Y-122621658D01*
X111541946Y-122655903D01*
X111746836Y-122779979D01*
X111983008Y-122966338D01*
X112336020Y-123263911D01*
X112750309Y-123570229D01*
X113081762Y-123759550D01*
X113318638Y-123824334D01*
X113479991Y-123793006D01*
X113774007Y-123648293D01*
X114161349Y-123381756D01*
X114649245Y-122988859D01*
X114666683Y-122974180D01*
X114908462Y-122787151D01*
X115107884Y-122660772D01*
X115223288Y-122621690D01*
X115284713Y-122606997D01*
X115388231Y-122480146D01*
X115469653Y-122272732D01*
X115502645Y-122039620D01*
X115499872Y-121979105D01*
X115466478Y-121932457D01*
X115365911Y-121970377D01*
X115162179Y-122099156D01*
X114985393Y-122226931D01*
X114890602Y-122341637D01*
X114913572Y-122434029D01*
X114924412Y-122453734D01*
X114885852Y-122570214D01*
X114738221Y-122719276D01*
X114520662Y-122875465D01*
X114272316Y-123013329D01*
X114032326Y-123107413D01*
X113839833Y-123132265D01*
X113673548Y-123084308D01*
X113582959Y-122996717D01*
X113577992Y-122956266D01*
X113604724Y-122975550D01*
X113691454Y-123040304D01*
X113885564Y-123042468D01*
X114133837Y-122975750D01*
X114392434Y-122860447D01*
X114617518Y-122716852D01*
X114765254Y-122565262D01*
X114791802Y-122425972D01*
X114789651Y-122410333D01*
X114853342Y-122292867D01*
X115005251Y-122132953D01*
X115199442Y-121969974D01*
X115389980Y-121843307D01*
X115530927Y-121792334D01*
X115544037Y-121797159D01*
G37*
G36*
X117289544Y-115061334D02*
G01*
X117287997Y-115230667D01*
X117286354Y-115410564D01*
X117282583Y-115823334D01*
X117277052Y-116428676D01*
X117270814Y-117111498D01*
X117269998Y-117200841D01*
X117267903Y-117430164D01*
X117263542Y-117907542D01*
X117262124Y-118062767D01*
X117250007Y-119389040D01*
X117240814Y-120395334D01*
X117012897Y-121041277D01*
X116985353Y-121118092D01*
X116730882Y-121737395D01*
X116447952Y-122289336D01*
X116161977Y-122723667D01*
X115904879Y-123034987D01*
X115262477Y-123687939D01*
X114559566Y-124255843D01*
X113843573Y-124698303D01*
X113666537Y-124787414D01*
X113461601Y-124882533D01*
X113354838Y-124921058D01*
X113284586Y-124901540D01*
X113097353Y-124822542D01*
X112848658Y-124702959D01*
X112388603Y-124442675D01*
X111630792Y-123882204D01*
X110955067Y-123212492D01*
X110383376Y-122460139D01*
X109937667Y-121651745D01*
X109639886Y-120813910D01*
X109623170Y-120747441D01*
X109581716Y-120562600D01*
X109548495Y-120368062D01*
X109522611Y-120143872D01*
X109503168Y-119870077D01*
X109489269Y-119526722D01*
X109480017Y-119093853D01*
X109478491Y-118943346D01*
X109534028Y-118943346D01*
X109591813Y-119706266D01*
X109672159Y-120335362D01*
X109926663Y-121273818D01*
X110335523Y-122143024D01*
X110896351Y-122938301D01*
X111606758Y-123654967D01*
X111742932Y-123769059D01*
X112105931Y-124050239D01*
X112467174Y-124303447D01*
X112765472Y-124484860D01*
X113033003Y-124618690D01*
X113260909Y-124717145D01*
X113390790Y-124754223D01*
X113426431Y-124748633D01*
X113616074Y-124670222D01*
X113903843Y-124512206D01*
X114261107Y-124291083D01*
X114659236Y-124023349D01*
X114941219Y-123811082D01*
X115568044Y-123215832D01*
X116108268Y-122525392D01*
X116546691Y-121768628D01*
X116868116Y-120974405D01*
X117057347Y-120171587D01*
X117099185Y-119389040D01*
X117074217Y-118873242D01*
X116529082Y-118726934D01*
X116461926Y-118709301D01*
X116164294Y-118647166D01*
X115894162Y-118631334D01*
X115605504Y-118666648D01*
X115591109Y-118670369D01*
X115252295Y-118757952D01*
X114788510Y-118910087D01*
X114549505Y-118986985D01*
X114293604Y-119056289D01*
X114135679Y-119083000D01*
X113968925Y-119110000D01*
X113745466Y-119183742D01*
X113619072Y-119241837D01*
X113614016Y-119252334D01*
X113601404Y-119278520D01*
X113712970Y-119307161D01*
X113973548Y-119341434D01*
X114165982Y-119364643D01*
X114693758Y-119428845D01*
X115081769Y-119488252D01*
X115351404Y-119560042D01*
X115524052Y-119661393D01*
X115621101Y-119809483D01*
X115663940Y-120021491D01*
X115673958Y-120314595D01*
X115673678Y-120392233D01*
X115672545Y-120705974D01*
X115672545Y-121326667D01*
X115672545Y-121665334D01*
X115672545Y-121707667D01*
X114662236Y-121707667D01*
X114436700Y-121707583D01*
X114054811Y-121712951D01*
X113802453Y-121740119D01*
X113651958Y-121806402D01*
X113575656Y-121929115D01*
X113545878Y-122125574D01*
X113534953Y-122413092D01*
X113521106Y-122850667D01*
X113471240Y-122391574D01*
X113433698Y-122170321D01*
X113366307Y-121974842D01*
X113292634Y-121885946D01*
X113230427Y-121922352D01*
X113197431Y-122102778D01*
X113188768Y-122247395D01*
X113175084Y-122267906D01*
X113146816Y-122131000D01*
X113114870Y-121991520D01*
X113050152Y-121861470D01*
X112932113Y-121778509D01*
X112731627Y-121732187D01*
X112419573Y-121712055D01*
X111966825Y-121707667D01*
X111000304Y-121707667D01*
X111000304Y-121665334D01*
X113293950Y-121665334D01*
X113336424Y-121707667D01*
X113378899Y-121665334D01*
X113463849Y-121665334D01*
X113506324Y-121707667D01*
X113548799Y-121665334D01*
X113506324Y-121623000D01*
X113463849Y-121665334D01*
X113378899Y-121665334D01*
X113336424Y-121623000D01*
X113293950Y-121665334D01*
X111000304Y-121665334D01*
X111000304Y-121326667D01*
X115417695Y-121326667D01*
X115460170Y-121369000D01*
X115502645Y-121326667D01*
X115460170Y-121284334D01*
X115417695Y-121326667D01*
X111000304Y-121326667D01*
X111000304Y-120694646D01*
X111000384Y-120618119D01*
X111008524Y-120160433D01*
X111039562Y-119844879D01*
X111106977Y-119647736D01*
X111224246Y-119545280D01*
X111404849Y-119513787D01*
X111662262Y-119529537D01*
X111977227Y-119562535D01*
X111658665Y-119576767D01*
X111340103Y-119591000D01*
X111340103Y-120437667D01*
X111340103Y-121284334D01*
X111630947Y-121284334D01*
X111727566Y-121280566D01*
X112027712Y-121246202D01*
X112342183Y-121187619D01*
X112429055Y-121168861D01*
X112759216Y-121134027D01*
X113028262Y-121183214D01*
X113293950Y-121275525D01*
X113378899Y-121275525D01*
X113644587Y-121183214D01*
X113701511Y-121165380D01*
X113977839Y-121134439D01*
X114330666Y-121187619D01*
X114480822Y-121219643D01*
X114848826Y-121273597D01*
X115125568Y-121276841D01*
X115276112Y-121227889D01*
X115288984Y-121194625D01*
X115311441Y-121021353D01*
X115326956Y-120740206D01*
X115332746Y-120392233D01*
X115332746Y-119613022D01*
X114929234Y-119557292D01*
X114842188Y-119545246D01*
X114488984Y-119496042D01*
X114169741Y-119451171D01*
X114106454Y-119443438D01*
X113822170Y-119432024D01*
X113596330Y-119455170D01*
X113538053Y-119470785D01*
X113460867Y-119509413D01*
X113413818Y-119588745D01*
X113389446Y-119740940D01*
X113380293Y-119998153D01*
X113378899Y-120392542D01*
X113378899Y-121275525D01*
X113293950Y-121275525D01*
X113293950Y-120392542D01*
X113293690Y-120150436D01*
X113288883Y-119837733D01*
X113272087Y-119643972D01*
X113235771Y-119536986D01*
X113172409Y-119484604D01*
X113074473Y-119454658D01*
X112982132Y-119439661D01*
X112716897Y-119429480D01*
X112416112Y-119446272D01*
X112233963Y-119461496D01*
X112111143Y-119456175D01*
X112147127Y-119420844D01*
X112185917Y-119407089D01*
X112407702Y-119363490D01*
X112678063Y-119342951D01*
X112693374Y-119342642D01*
X112939631Y-119313839D01*
X113028616Y-119255212D01*
X113025661Y-119252334D01*
X113209000Y-119252334D01*
X113232650Y-119351081D01*
X113336424Y-119421667D01*
X113410733Y-119390238D01*
X113463849Y-119252334D01*
X113440199Y-119153586D01*
X113336424Y-119083000D01*
X113262116Y-119114429D01*
X113209000Y-119252334D01*
X113025661Y-119252334D01*
X112956771Y-119185238D01*
X112720538Y-119122393D01*
X112613249Y-119102228D01*
X112298297Y-119029540D01*
X111977227Y-118941720D01*
X111553618Y-118816035D01*
X111146297Y-118705607D01*
X110994731Y-118675572D01*
X111865226Y-118675572D01*
X111984175Y-118777608D01*
X112098484Y-118816844D01*
X112175993Y-118798579D01*
X112189602Y-118659667D01*
X112162605Y-118553834D01*
X112275852Y-118553834D01*
X112287524Y-118602473D01*
X112316543Y-118659667D01*
X112359501Y-118744334D01*
X112379769Y-118774132D01*
X112429738Y-118804548D01*
X112443150Y-118680834D01*
X112439969Y-118659667D01*
X112529401Y-118659667D01*
X112534988Y-118680834D01*
X112558959Y-118771655D01*
X112704314Y-118829000D01*
X112802597Y-118842208D01*
X112839851Y-118892500D01*
X112888784Y-118923378D01*
X113067435Y-118946972D01*
X113336424Y-118956000D01*
X113592038Y-118947934D01*
X113776977Y-118925034D01*
X113832998Y-118892500D01*
X113845409Y-118853847D01*
X113968535Y-118829000D01*
X114084213Y-118800385D01*
X114143448Y-118659667D01*
X114140630Y-118639893D01*
X114250413Y-118639893D01*
X114264826Y-118659667D01*
X114319698Y-118734946D01*
X114484400Y-118795239D01*
X114666676Y-118798274D01*
X114788887Y-118730924D01*
X114805908Y-118711309D01*
X114913866Y-118705616D01*
X114941392Y-118717294D01*
X114992946Y-118670369D01*
X114965119Y-118612247D01*
X114791321Y-118539064D01*
X114467395Y-118502769D01*
X114457023Y-118502382D01*
X114290867Y-118529659D01*
X114250413Y-118639893D01*
X114140630Y-118639893D01*
X114132684Y-118584148D01*
X114078125Y-118533185D01*
X113948240Y-118504970D01*
X113711511Y-118492890D01*
X113336424Y-118490334D01*
X112976509Y-118492592D01*
X112733626Y-118504040D01*
X112599157Y-118531293D01*
X112541587Y-118580964D01*
X112529401Y-118659667D01*
X112439969Y-118659667D01*
X112425300Y-118562042D01*
X112359501Y-118490334D01*
X112339627Y-118492106D01*
X112275852Y-118553834D01*
X112162605Y-118553834D01*
X112161679Y-118550202D01*
X112019702Y-118490334D01*
X111996048Y-118491363D01*
X111872045Y-118557017D01*
X111865226Y-118675572D01*
X110994731Y-118675572D01*
X110833370Y-118643596D01*
X110577493Y-118628405D01*
X110341320Y-118658439D01*
X110087505Y-118732102D01*
X109778704Y-118847800D01*
X109534028Y-118943346D01*
X109478491Y-118943346D01*
X109474517Y-118551517D01*
X109473525Y-118299834D01*
X113210301Y-118299834D01*
X113241637Y-118361550D01*
X113378899Y-118405667D01*
X113430162Y-118397748D01*
X113533347Y-118299221D01*
X113546348Y-118147597D01*
X113454352Y-118018817D01*
X113358753Y-118018333D01*
X113256462Y-118126279D01*
X113210301Y-118299834D01*
X109473525Y-118299834D01*
X109472560Y-118054765D01*
X112884986Y-118054765D01*
X112930124Y-118107960D01*
X113031369Y-118033951D01*
X113087629Y-117950269D01*
X113081575Y-117897667D01*
X113064743Y-117873057D01*
X113078745Y-117848884D01*
X113161813Y-117848884D01*
X113266678Y-117894752D01*
X113527562Y-117892670D01*
X113581160Y-117934967D01*
X113646519Y-118083170D01*
X113665611Y-118147597D01*
X113680112Y-118196533D01*
X113701083Y-118211443D01*
X113710231Y-118062767D01*
X113689999Y-117900591D01*
X113612081Y-117758267D01*
X113754233Y-117758267D01*
X113772928Y-117855334D01*
X113860006Y-117935223D01*
X114015313Y-117979169D01*
X114162788Y-117972770D01*
X114228398Y-117907542D01*
X114185855Y-117849270D01*
X114037261Y-117781698D01*
X114024116Y-117778201D01*
X113826643Y-117735709D01*
X113754233Y-117758267D01*
X113612081Y-117758267D01*
X113590065Y-117718053D01*
X113441846Y-117643667D01*
X113418562Y-117649630D01*
X113419711Y-117690041D01*
X113420773Y-117727364D01*
X113429845Y-117764964D01*
X113349429Y-117763925D01*
X113285904Y-117752446D01*
X113170104Y-117807228D01*
X113161813Y-117848884D01*
X113078745Y-117848884D01*
X113124050Y-117770667D01*
X113176145Y-117690041D01*
X113137440Y-117643667D01*
X113075882Y-117673545D01*
X113060216Y-117681149D01*
X112951630Y-117817694D01*
X112949511Y-117822392D01*
X112909496Y-117911097D01*
X112884986Y-118054765D01*
X109472560Y-118054765D01*
X109471871Y-117879758D01*
X109471841Y-117843950D01*
X112495946Y-117843950D01*
X112543457Y-117908117D01*
X112572942Y-117926091D01*
X112727378Y-117975660D01*
X112830218Y-117892034D01*
X112861886Y-117822392D01*
X112814589Y-117760349D01*
X112624697Y-117785771D01*
X112603871Y-117791392D01*
X112495946Y-117843950D01*
X109471841Y-117843950D01*
X109471636Y-117598825D01*
X112167390Y-117598825D01*
X112168894Y-117621083D01*
X112209330Y-117643919D01*
X112227592Y-117735565D01*
X112209321Y-117785588D01*
X112273313Y-117797669D01*
X112465689Y-117754637D01*
X112527354Y-117735606D01*
X112610542Y-117673545D01*
X112551791Y-117627125D01*
X112715564Y-117627125D01*
X112826725Y-117636420D01*
X112942799Y-117622812D01*
X113166525Y-117559000D01*
X113248192Y-117521881D01*
X113260113Y-117500636D01*
X113407373Y-117500636D01*
X113463849Y-117559000D01*
X113613812Y-117619178D01*
X113783686Y-117640383D01*
X113909571Y-117620324D01*
X113931073Y-117559000D01*
X113927765Y-117553386D01*
X113942550Y-117489481D01*
X114070189Y-117494216D01*
X114270873Y-117566689D01*
X114348716Y-117604418D01*
X114379187Y-117631557D01*
X114249635Y-117610998D01*
X114128373Y-117605602D01*
X114058498Y-117651593D01*
X114059788Y-117665486D01*
X114136500Y-117728334D01*
X114196744Y-117736234D01*
X114362810Y-117785055D01*
X114453912Y-117805661D01*
X114449694Y-117742722D01*
X114433147Y-117694882D01*
X114499471Y-117640667D01*
X114505401Y-117640293D01*
X114513652Y-117598061D01*
X114398297Y-117508360D01*
X114185923Y-117379055D01*
X114398297Y-117422483D01*
X114515664Y-117444357D01*
X114552944Y-117430164D01*
X114445773Y-117343122D01*
X114342060Y-117273457D01*
X114193982Y-117226673D01*
X114143448Y-117314179D01*
X114096026Y-117366120D01*
X113923955Y-117353118D01*
X113778670Y-117334259D01*
X113771951Y-117352089D01*
X113763062Y-117375678D01*
X113759069Y-117386273D01*
X113735542Y-117449281D01*
X113575050Y-117475630D01*
X113497365Y-117477630D01*
X113445797Y-117490813D01*
X113407373Y-117500636D01*
X113260113Y-117500636D01*
X113265625Y-117490813D01*
X113124050Y-117481581D01*
X112967507Y-117495963D01*
X112784251Y-117559000D01*
X112761067Y-117574314D01*
X112715564Y-117627125D01*
X112551791Y-117627125D01*
X112542827Y-117620042D01*
X112338070Y-117592685D01*
X112301402Y-117591850D01*
X112167390Y-117598825D01*
X109471636Y-117598825D01*
X109471240Y-117125627D01*
X111982541Y-117125627D01*
X112009114Y-117199468D01*
X112043979Y-117366572D01*
X112086829Y-117426328D01*
X112258905Y-117417724D01*
X112404890Y-117400718D01*
X112409633Y-117461985D01*
X112405292Y-117469069D01*
X112383755Y-117533190D01*
X112455953Y-117541316D01*
X112656826Y-117498627D01*
X112821447Y-117443623D01*
X112914334Y-117375678D01*
X112887385Y-117342314D01*
X113116466Y-117342314D01*
X113161591Y-117361500D01*
X113336424Y-117368315D01*
X113429073Y-117366119D01*
X113531178Y-117352089D01*
X113484096Y-117329785D01*
X113348298Y-117315724D01*
X113144297Y-117331494D01*
X113116466Y-117342314D01*
X112887385Y-117342314D01*
X112880576Y-117333884D01*
X112709911Y-117347467D01*
X112649713Y-117359271D01*
X112494137Y-117368981D01*
X112481312Y-117314054D01*
X112498083Y-117273660D01*
X112459925Y-117226222D01*
X112614351Y-117226222D01*
X112614790Y-117241858D01*
X112635588Y-117290767D01*
X112643983Y-117287826D01*
X112764521Y-117268170D01*
X112975388Y-117243323D01*
X113095059Y-117229344D01*
X113254560Y-117190146D01*
X113263387Y-117154425D01*
X113378899Y-117154425D01*
X113439775Y-117187129D01*
X113610784Y-117227833D01*
X113815211Y-117249998D01*
X113986600Y-117247698D01*
X114058498Y-117215010D01*
X114005799Y-117162839D01*
X113846123Y-117135667D01*
X113805897Y-117128449D01*
X114313348Y-117128449D01*
X114345613Y-117179012D01*
X114420878Y-117215010D01*
X114483364Y-117244896D01*
X114578594Y-117255706D01*
X114605776Y-117212438D01*
X114595202Y-117182486D01*
X114658535Y-117135667D01*
X114713352Y-117111498D01*
X114653147Y-117008667D01*
X114577058Y-116942499D01*
X114409133Y-116884360D01*
X114361577Y-116887559D01*
X114333747Y-116923352D01*
X114425608Y-117008667D01*
X114440772Y-117022750D01*
X114499314Y-117070739D01*
X114547246Y-117126718D01*
X114462010Y-117107381D01*
X114378274Y-117091234D01*
X114313348Y-117128449D01*
X113805897Y-117128449D01*
X113707596Y-117110810D01*
X113633749Y-117008667D01*
X113803649Y-117008667D01*
X113846123Y-117051000D01*
X113888598Y-117008667D01*
X113846123Y-116966334D01*
X113803649Y-117008667D01*
X113633749Y-117008667D01*
X113666370Y-116933443D01*
X113808662Y-116881667D01*
X113905063Y-116863641D01*
X113931073Y-116797000D01*
X113900205Y-116759807D01*
X113758012Y-116707999D01*
X113614361Y-116751651D01*
X113548799Y-116874611D01*
X113531484Y-116969314D01*
X113442612Y-117074687D01*
X113401864Y-117094531D01*
X113391875Y-117120583D01*
X113378899Y-117154425D01*
X113263387Y-117154425D01*
X113271749Y-117120583D01*
X113165744Y-116995793D01*
X113098928Y-116904241D01*
X113085808Y-116790174D01*
X113080294Y-116743211D01*
X112964177Y-116712334D01*
X112861249Y-116726597D01*
X112741776Y-116797000D01*
X112749412Y-116850152D01*
X112871266Y-116881667D01*
X112961511Y-116895495D01*
X113019413Y-116967597D01*
X112992780Y-117008667D01*
X112960250Y-117058832D01*
X112798834Y-117120389D01*
X112686350Y-117153332D01*
X112614351Y-117226222D01*
X112459925Y-117226222D01*
X112455189Y-117220334D01*
X112398447Y-117191916D01*
X112319796Y-117059697D01*
X112287770Y-117008667D01*
X112784251Y-117008667D01*
X112826725Y-117051000D01*
X112869200Y-117008667D01*
X112826725Y-116966334D01*
X112784251Y-117008667D01*
X112287770Y-117008667D01*
X112256658Y-116959094D01*
X112096892Y-116943824D01*
X111989256Y-116998820D01*
X111982541Y-117125627D01*
X109471240Y-117125627D01*
X109471184Y-117058623D01*
X109471179Y-116383563D01*
X112919139Y-116383563D01*
X112940437Y-116429853D01*
X113073516Y-116448224D01*
X113347260Y-116447188D01*
X113576638Y-116440448D01*
X113707215Y-116428676D01*
X113693314Y-116408101D01*
X113548799Y-116373667D01*
X113490042Y-116360504D01*
X113366913Y-116321365D01*
X113381933Y-116300146D01*
X113457456Y-116262222D01*
X113512392Y-116119667D01*
X113512365Y-116114880D01*
X113463771Y-115988041D01*
X113296983Y-115957018D01*
X113177644Y-115973585D01*
X113187762Y-116006407D01*
X113265414Y-116059740D01*
X113282694Y-116156060D01*
X113176926Y-116204334D01*
X113098780Y-116223743D01*
X112954150Y-116331334D01*
X112919139Y-116383563D01*
X109471179Y-116383563D01*
X109471174Y-115738667D01*
X112869200Y-115738667D01*
X112911675Y-115781000D01*
X112954150Y-115738667D01*
X112952442Y-115736965D01*
X113142200Y-115736965D01*
X113142372Y-115738667D01*
X113152367Y-115837445D01*
X113177918Y-115850690D01*
X113209000Y-115781000D01*
X113293950Y-115781000D01*
X113296418Y-115801238D01*
X113378899Y-115865667D01*
X113399205Y-115863207D01*
X113430559Y-115823334D01*
X113633749Y-115823334D01*
X113676224Y-115865667D01*
X113718699Y-115823334D01*
X113676224Y-115781000D01*
X113633749Y-115823334D01*
X113430559Y-115823334D01*
X113463849Y-115781000D01*
X113461381Y-115760763D01*
X113378899Y-115696334D01*
X113358594Y-115698794D01*
X113293950Y-115781000D01*
X113209000Y-115781000D01*
X113202869Y-115736178D01*
X113152367Y-115724556D01*
X113142200Y-115736965D01*
X112952442Y-115736965D01*
X112911675Y-115696334D01*
X112869200Y-115738667D01*
X109471174Y-115738667D01*
X109471170Y-115125187D01*
X111560548Y-115125187D01*
X111619482Y-115299825D01*
X111751383Y-115413783D01*
X111961520Y-115523188D01*
X112153419Y-115582117D01*
X112301319Y-115604983D01*
X112311108Y-115603646D01*
X112291339Y-115570288D01*
X112147127Y-115508948D01*
X111944527Y-115423015D01*
X112499021Y-115423015D01*
X112532435Y-115474614D01*
X112538920Y-115480140D01*
X112695144Y-115545031D01*
X112963538Y-115603646D01*
X112965823Y-115604145D01*
X113300056Y-115646111D01*
X113379846Y-115652734D01*
X113686874Y-115671295D01*
X113879175Y-115661265D01*
X114001602Y-115616076D01*
X114099008Y-115529164D01*
X114147871Y-115473390D01*
X114163376Y-115442334D01*
X114313348Y-115442334D01*
X114314884Y-115456209D01*
X114398727Y-115516967D01*
X114562286Y-115512342D01*
X114738097Y-115442334D01*
X114779215Y-115410564D01*
X114760714Y-115370953D01*
X114589435Y-115358963D01*
X114568462Y-115359108D01*
X114387599Y-115385062D01*
X114346194Y-115416999D01*
X114313348Y-115442334D01*
X114163376Y-115442334D01*
X114176024Y-115416999D01*
X114133177Y-115382755D01*
X113994605Y-115365135D01*
X113735583Y-115358613D01*
X113331387Y-115357667D01*
X112969228Y-115359690D01*
X112694107Y-115368965D01*
X112545141Y-115388936D01*
X112499021Y-115423015D01*
X111944527Y-115423015D01*
X111894743Y-115401899D01*
X111728864Y-115265103D01*
X111719050Y-115230667D01*
X114992946Y-115230667D01*
X115035421Y-115273000D01*
X115077896Y-115230667D01*
X115035421Y-115188334D01*
X114992946Y-115230667D01*
X111719050Y-115230667D01*
X111679903Y-115093300D01*
X111726052Y-114974114D01*
X111897291Y-114934334D01*
X112032101Y-114956218D01*
X112062177Y-115019000D01*
X112056766Y-115065077D01*
X112152515Y-115103667D01*
X112167828Y-115103521D01*
X112247218Y-115076993D01*
X113003453Y-115076993D01*
X113124050Y-115090298D01*
X113240909Y-115078496D01*
X113234982Y-115061334D01*
X113378899Y-115061334D01*
X113396119Y-115078496D01*
X113421374Y-115103667D01*
X113463849Y-115061334D01*
X113548799Y-115061334D01*
X113591274Y-115103667D01*
X113633749Y-115061334D01*
X113591274Y-115019000D01*
X113548799Y-115061334D01*
X113463849Y-115061334D01*
X113421374Y-115019000D01*
X113378899Y-115061334D01*
X113234982Y-115061334D01*
X113230237Y-115047594D01*
X113191784Y-115036411D01*
X113017863Y-115047594D01*
X113003453Y-115076993D01*
X112247218Y-115076993D01*
X112248224Y-115076657D01*
X112189602Y-114976667D01*
X112142838Y-114929791D01*
X112090754Y-114907660D01*
X113173352Y-114907660D01*
X113293950Y-114920965D01*
X113410809Y-114909163D01*
X113400137Y-114878260D01*
X113361684Y-114867078D01*
X113187762Y-114878260D01*
X113173352Y-114907660D01*
X112090754Y-114907660D01*
X111962658Y-114853231D01*
X111776184Y-114876922D01*
X111627464Y-114975896D01*
X111560548Y-115125187D01*
X109471170Y-115125187D01*
X109471166Y-114636298D01*
X113227150Y-114636298D01*
X113237316Y-114736778D01*
X113262868Y-114750024D01*
X113293950Y-114680334D01*
X113287819Y-114635511D01*
X113237316Y-114623889D01*
X113227150Y-114636298D01*
X109471166Y-114636298D01*
X109471165Y-114450489D01*
X113995255Y-114450489D01*
X113995328Y-114469851D01*
X114122210Y-114583291D01*
X114214921Y-114680334D01*
X114255160Y-114722453D01*
X114313348Y-114832201D01*
X114376728Y-114900722D01*
X114401237Y-114909163D01*
X114545344Y-114958794D01*
X114663000Y-114978679D01*
X114714173Y-114967408D01*
X114628818Y-114894755D01*
X114549531Y-114810233D01*
X114538995Y-114634059D01*
X114542747Y-114624147D01*
X114554308Y-114523065D01*
X114449366Y-114538331D01*
X114321218Y-114554347D01*
X114116056Y-114505916D01*
X113995255Y-114450489D01*
X109471165Y-114450489D01*
X109471161Y-113960667D01*
X113385171Y-113983508D01*
X117299182Y-114006349D01*
X117290402Y-114967408D01*
X117289544Y-115061334D01*
G37*
D11*
%TO.C,A1*%
X179589000Y-57459000D02*
X179589000Y-63809000D01*
X167909000Y-57459000D02*
X179589000Y-57459000D01*
X147839000Y-61909000D02*
X147839000Y-63809000D01*
X138699000Y-61909000D02*
X147839000Y-61909000D01*
X189119000Y-63809000D02*
X189119000Y-128459000D01*
X179589000Y-63809000D02*
X189119000Y-63809000D01*
X167909000Y-63809000D02*
X167909000Y-57459000D01*
X147839000Y-63809000D02*
X167909000Y-63809000D01*
X138699000Y-63809000D02*
X138699000Y-61909000D01*
X135519000Y-63809000D02*
X138699000Y-63809000D01*
X189119000Y-128459000D02*
X187469000Y-130109000D01*
X187469000Y-130109000D02*
X176039000Y-130109000D01*
X176039000Y-130109000D02*
X173499000Y-132649000D01*
X138189000Y-130109000D02*
X135519000Y-130109000D01*
X135519000Y-130109000D02*
X135519000Y-63809000D01*
X173499000Y-132649000D02*
X140729000Y-132649000D01*
X140729000Y-132649000D02*
X138189000Y-130109000D01*
%TD*%
%LPC*%
D12*
%TO.C,J17*%
X159579000Y-95619000D03*
D13*
X157039000Y-95619000D03*
%TD*%
D12*
%TO.C,J14*%
X179689000Y-101359000D03*
D13*
X177149000Y-101359000D03*
%TD*%
D14*
%TO.C,R1*%
X170179000Y-94394000D03*
D15*
X162559000Y-94394000D03*
%TD*%
D12*
%TO.C,J13*%
X179689000Y-104959000D03*
D13*
X177149000Y-104959000D03*
%TD*%
D12*
%TO.C,J23*%
X93554000Y-68919000D03*
D13*
X93554000Y-71459000D03*
%TD*%
D16*
%TO.C,C18*%
X132329000Y-140081755D03*
D17*
X132329000Y-132581755D03*
%TD*%
D12*
%TO.C,J11*%
X145689000Y-105779000D03*
D13*
X145689000Y-108319000D03*
X145689000Y-110859000D03*
%TD*%
D16*
%TO.C,C24*%
X164729000Y-101469000D03*
D17*
X164729000Y-108969000D03*
%TD*%
D12*
%TO.C,J8*%
X183329000Y-105769000D03*
D13*
X183329000Y-108309000D03*
X183329000Y-110849000D03*
X183329000Y-113389000D03*
X183329000Y-115929000D03*
X183329000Y-118469000D03*
X183329000Y-121009000D03*
X183329000Y-123549000D03*
%TD*%
D16*
%TO.C,C8*%
X143529000Y-148269000D03*
D17*
X143529000Y-155769000D03*
%TD*%
D12*
%TO.C,J20*%
X159579000Y-91894000D03*
D13*
X157039000Y-91894000D03*
%TD*%
D14*
%TO.C,R7*%
X170179000Y-91294000D03*
D15*
X162559000Y-91294000D03*
%TD*%
D14*
%TO.C,R4*%
X170179000Y-81994000D03*
D15*
X162559000Y-81994000D03*
%TD*%
D16*
%TO.C,C2*%
X102529000Y-133069000D03*
D17*
X95029000Y-133069000D03*
%TD*%
D16*
%TO.C,C23*%
X182329000Y-131669000D03*
D17*
X182329000Y-139169000D03*
%TD*%
D12*
%TO.C,J19*%
X159579000Y-84519000D03*
D13*
X157039000Y-84519000D03*
%TD*%
D12*
%TO.C,J5*%
X141889000Y-90259000D03*
D13*
X141889000Y-92799000D03*
X141889000Y-95339000D03*
X141889000Y-97879000D03*
X141889000Y-100419000D03*
X141889000Y-102959000D03*
X141889000Y-105499000D03*
X141889000Y-108039000D03*
%TD*%
D16*
%TO.C,C22*%
X165729000Y-132469000D03*
D17*
X165729000Y-139969000D03*
%TD*%
D16*
%TO.C,C7*%
X160719000Y-148279000D03*
D17*
X160719000Y-155779000D03*
%TD*%
D12*
%TO.C,J10*%
X145529000Y-115949000D03*
D13*
X145529000Y-118489000D03*
X145529000Y-121029000D03*
X145529000Y-123569000D03*
%TD*%
D16*
%TO.C,C13*%
X177879000Y-148229000D03*
D17*
X177879000Y-155729000D03*
%TD*%
D16*
%TO.C,C15*%
X119429000Y-69569000D03*
D17*
X126929000Y-69569000D03*
%TD*%
D16*
%TO.C,C9*%
X125979000Y-148269000D03*
D17*
X125979000Y-155769000D03*
%TD*%
D12*
%TO.C,J12*%
X149489000Y-105779000D03*
D13*
X149489000Y-108319000D03*
X149489000Y-110859000D03*
%TD*%
D12*
%TO.C,J22*%
X159579000Y-80894000D03*
D13*
X157039000Y-80894000D03*
%TD*%
D12*
%TO.C,J16*%
X147389000Y-97169000D03*
D13*
X149929000Y-97169000D03*
%TD*%
D18*
%TO.C,J21*%
X101929000Y-70331500D03*
X109129000Y-70331500D03*
D19*
X112279000Y-64331500D03*
X98779000Y-64331500D03*
%TD*%
D16*
%TO.C,C3*%
X102341754Y-116169000D03*
D17*
X94841754Y-116169000D03*
%TD*%
D14*
%TO.C,R3*%
X170189000Y-85094000D03*
D15*
X162569000Y-85094000D03*
%TD*%
D12*
%TO.C,J7*%
X183329000Y-79229000D03*
D13*
X183329000Y-81769000D03*
X183329000Y-84309000D03*
X183329000Y-86849000D03*
X183329000Y-89389000D03*
X183329000Y-91929000D03*
X183329000Y-94469000D03*
X183329000Y-97009000D03*
X183329000Y-99549000D03*
X183329000Y-102089000D03*
%TD*%
D16*
%TO.C,C1*%
X102829000Y-150069000D03*
D17*
X95329000Y-150069000D03*
%TD*%
D16*
%TO.C,C16*%
X126029000Y-85969000D03*
D17*
X133529000Y-85969000D03*
%TD*%
D14*
%TO.C,R2*%
X170189000Y-88194000D03*
D15*
X162569000Y-88194000D03*
%TD*%
D16*
%TO.C,C10*%
X116929000Y-141469000D03*
D17*
X109429000Y-141469000D03*
%TD*%
D16*
%TO.C,C11*%
X116829000Y-124569000D03*
D17*
X109329000Y-124569000D03*
%TD*%
D16*
%TO.C,C12*%
X116929000Y-107769000D03*
D17*
X109429000Y-107769000D03*
%TD*%
D16*
%TO.C,C6*%
X116941754Y-90569000D03*
D17*
X109441754Y-90569000D03*
%TD*%
D16*
%TO.C,C4*%
X102629000Y-99169000D03*
D17*
X95129000Y-99169000D03*
%TD*%
D16*
%TO.C,C21*%
X155929000Y-116269000D03*
D17*
X155929000Y-123769000D03*
%TD*%
D16*
%TO.C,C17*%
X125429000Y-119769000D03*
D17*
X132929000Y-119769000D03*
%TD*%
D12*
%TO.C,J15*%
X179639000Y-97784000D03*
D13*
X177099000Y-97784000D03*
%TD*%
D16*
%TO.C,C19*%
X149129000Y-139281755D03*
D17*
X149129000Y-131781755D03*
%TD*%
D12*
%TO.C,J6*%
X141889000Y-111779000D03*
D13*
X141889000Y-114319000D03*
X141889000Y-116859000D03*
X141889000Y-119399000D03*
X141889000Y-121939000D03*
X141889000Y-124479000D03*
%TD*%
D12*
%TO.C,J24*%
X113069000Y-156169000D03*
D13*
X110529000Y-156169000D03*
%TD*%
D16*
%TO.C,C20*%
X172929000Y-116256246D03*
D17*
X172929000Y-123756246D03*
%TD*%
D12*
%TO.C,J18*%
X159579000Y-88194000D03*
D13*
X157039000Y-88194000D03*
%TD*%
D12*
%TO.C,J9*%
X148129000Y-81949000D03*
D13*
X148129000Y-84489000D03*
X148129000Y-87029000D03*
X148129000Y-89569000D03*
%TD*%
D16*
%TO.C,C14*%
X125229000Y-102769000D03*
D17*
X132729000Y-102769000D03*
%TD*%
D16*
%TO.C,C5*%
X102629000Y-81969000D03*
D17*
X95129000Y-81969000D03*
%TD*%
D20*
%TO.C,A1*%
X138189000Y-91879000D03*
D15*
X138189000Y-94419000D03*
X138189000Y-96959000D03*
X138189000Y-99499000D03*
X138189000Y-102039000D03*
X138189000Y-104579000D03*
X138189000Y-107119000D03*
X138189000Y-109659000D03*
X138189000Y-114739000D03*
X138189000Y-117279000D03*
X138189000Y-119819000D03*
X138189000Y-122359000D03*
X138189000Y-124899000D03*
X138189000Y-127439000D03*
X186449000Y-127439000D03*
X186449000Y-124899000D03*
X186449000Y-122359000D03*
X186449000Y-119819000D03*
X186449000Y-117279000D03*
X186449000Y-114739000D03*
X186449000Y-112199000D03*
X186449000Y-109659000D03*
X186449000Y-105599000D03*
X186449000Y-103059000D03*
X186449000Y-100519000D03*
X186449000Y-97979000D03*
X186449000Y-95439000D03*
X186449000Y-92899000D03*
X186449000Y-90359000D03*
X186449000Y-87819000D03*
X186449000Y-85279000D03*
X186449000Y-82739000D03*
%TD*%
%LPD*%
M02*
