M48
; DRILL file {KiCad 7.0.7} date Tue Sep 19 14:41:34 2023
; FORMAT={-:-/ absolute / metric / decimal}
; #@! TF.CreationDate,2023-09-19T14:41:34+02:00
; #@! TF.GenerationSoftware,Kicad,Pcbnew,7.0.7
; #@! TF.FileFunction,Plated,1,2,PTH
FMAT,2
METRIC
; #@! TA.AperFunction,Plated,PTH,ViaDrill
T1C0.400
; #@! TA.AperFunction,Plated,PTH,ComponentDrill
T2C0.800
; #@! TA.AperFunction,Plated,PTH,ComponentDrill
T3C1.000
; #@! TA.AperFunction,Plated,PTH,ComponentDrill
T4C1.200
; #@! TA.AperFunction,Plated,PTH,ComponentDrill
T5C1.800
; #@! TA.AperFunction,Plated,PTH,ComponentDrill
T6C2.700
%
G90
G05
T1
X103.529Y-90.369
X103.729Y-107.769
X103.929Y-124.569
X103.929Y-141.569
X109.729Y-74.769
X113.929Y-74.769
X115.529Y-78.369
X121.529Y-132.969
X122.529Y-111.369
X122.729Y-94.169
X133.529Y-69.769
X134.729Y-157.369
X134.929Y-110.169
X137.529Y-144.369
X140.329Y-129.169
X142.129Y-83.169
X152.129Y-157.569
X153.329Y-100.769
X154.129Y-144.169
X157.729Y-73.969
X161.329Y-127.769
X164.729Y-105.569
X167.749Y-101.929
X169.329Y-157.769
X171.329Y-144.569
X171.929Y-79.169
X177.289Y-92.309
X177.929Y-87.369
X179.129Y-117.969
X186.709Y-78.209
X187.529Y-107.569
T2
X162.559Y-81.994
X162.559Y-91.294
X162.559Y-94.394
X162.569Y-85.094
X162.569Y-88.194
X170.179Y-81.994
X170.179Y-91.294
X170.179Y-94.394
X170.189Y-85.094
X170.189Y-88.194
T3
X93.554Y-68.919
X93.554Y-71.459
X110.529Y-156.169
X113.069Y-156.169
X138.189Y-91.879
X138.189Y-94.419
X138.189Y-96.959
X138.189Y-99.499
X138.189Y-102.039
X138.189Y-104.579
X138.189Y-107.119
X138.189Y-109.659
X138.189Y-114.739
X138.189Y-117.279
X138.189Y-119.819
X138.189Y-122.359
X138.189Y-124.899
X138.189Y-127.439
X141.889Y-90.259
X141.889Y-92.799
X141.889Y-95.339
X141.889Y-97.879
X141.889Y-100.419
X141.889Y-102.959
X141.889Y-105.499
X141.889Y-108.039
X141.889Y-111.779
X141.889Y-114.319
X141.889Y-116.859
X141.889Y-119.399
X141.889Y-121.939
X141.889Y-124.479
X145.529Y-115.949
X145.529Y-118.489
X145.529Y-121.029
X145.529Y-123.569
X145.689Y-105.779
X145.689Y-108.319
X145.689Y-110.859
X147.389Y-97.169
X148.129Y-81.949
X148.129Y-84.489
X148.129Y-87.029
X148.129Y-89.569
X149.489Y-105.779
X149.489Y-108.319
X149.489Y-110.859
X149.929Y-97.169
X157.039Y-80.894
X157.039Y-84.519
X157.039Y-88.194
X157.039Y-91.894
X157.039Y-95.619
X159.579Y-80.894
X159.579Y-84.519
X159.579Y-88.194
X159.579Y-91.894
X159.579Y-95.619
X177.099Y-97.784
X177.149Y-101.359
X177.149Y-104.959
X179.639Y-97.784
X179.689Y-101.359
X179.689Y-104.959
X183.329Y-79.229
X183.329Y-81.769
X183.329Y-84.309
X183.329Y-86.849
X183.329Y-89.389
X183.329Y-91.929
X183.329Y-94.469
X183.329Y-97.009
X183.329Y-99.549
X183.329Y-102.089
X183.329Y-105.769
X183.329Y-108.309
X183.329Y-110.849
X183.329Y-113.389
X183.329Y-115.929
X183.329Y-118.469
X183.329Y-121.009
X183.329Y-123.549
X186.449Y-82.739
X186.449Y-85.279
X186.449Y-87.819
X186.449Y-90.359
X186.449Y-92.899
X186.449Y-95.439
X186.449Y-97.979
X186.449Y-100.519
X186.449Y-103.059
X186.449Y-105.599
X186.449Y-109.659
X186.449Y-112.199
X186.449Y-114.739
X186.449Y-117.279
X186.449Y-119.819
X186.449Y-122.359
X186.449Y-124.899
X186.449Y-127.439
T4
X94.842Y-116.169
X95.029Y-133.069
X95.129Y-81.969
X95.129Y-99.169
X95.329Y-150.069
X102.342Y-116.169
X102.529Y-133.069
X102.629Y-81.969
X102.629Y-99.169
X102.829Y-150.069
X109.329Y-124.569
X109.429Y-107.769
X109.429Y-141.469
X109.442Y-90.569
X116.829Y-124.569
X116.929Y-107.769
X116.929Y-141.469
X116.942Y-90.569
X119.429Y-69.569
X125.229Y-102.769
X125.429Y-119.769
X125.979Y-148.269
X125.979Y-155.769
X126.029Y-85.969
X126.929Y-69.569
X132.329Y-132.582
X132.329Y-140.082
X132.729Y-102.769
X132.929Y-119.769
X133.529Y-85.969
X143.529Y-148.269
X143.529Y-155.769
X149.129Y-131.782
X149.129Y-139.282
X155.929Y-116.269
X155.929Y-123.769
X160.719Y-148.279
X160.719Y-155.779
X164.729Y-101.469
X164.729Y-108.969
X165.729Y-132.469
X165.729Y-139.969
X172.929Y-116.256
X172.929Y-123.756
X177.879Y-148.229
X177.879Y-155.729
X182.329Y-131.669
X182.329Y-139.169
T5
X98.779Y-64.331
X112.279Y-64.331
T6
X101.929Y-70.331
X109.129Y-70.331
T0
M30
